<svg width="20" height="20" viewBox="0 0 20 20" fill="none" xmlns="http://www.w3.org/2000/svg">
<path fill-rule="evenodd" clip-rule="evenodd" d="M8.28777 1.04102H11.7126C12.8522 1.041 13.7708 1.04099 14.4933 1.13812C15.2434 1.23897 15.8749 1.45471 16.3765 1.95631C16.8781 2.4579 17.0939 3.08947 17.1947 3.83956C17.2919 4.56203 17.2918 5.48063 17.2918 6.62029V13.3784C17.2918 14.5181 17.2919 15.4367 17.1947 16.1591C17.0939 16.9092 16.8781 17.5408 16.3765 18.0424C15.8749 18.544 15.2434 18.7597 14.4933 18.8606C13.7708 18.9577 12.8522 18.9577 11.7126 18.9577H8.28777C7.14811 18.9577 6.22951 18.9577 5.50704 18.8606C4.75695 18.7597 4.12539 18.544 3.62379 18.0424C3.12219 17.5408 2.90645 16.9092 2.8056 16.1591C2.70847 15.4367 2.70848 14.5181 2.7085 13.3784V6.62029C2.70848 5.48063 2.70847 4.56203 2.8056 3.83956C2.90645 3.08947 3.12219 2.4579 3.62379 1.95631C4.12539 1.45471 4.75695 1.23897 5.50704 1.13812C6.22951 1.04099 7.14811 1.041 8.28777 1.04102ZM5.2085 2.46624C4.88174 2.55339 4.67127 2.6766 4.50767 2.84019C4.27704 3.07083 4.12666 3.39464 4.04445 4.00612C3.95982 4.63558 3.9585 5.46984 3.9585 6.66602V13.271C4.25203 13.0658 4.58285 12.9097 4.9395 12.8142C5.02558 12.7911 5.11474 12.773 5.2085 12.7589V2.46624ZM6.4585 2.31335V12.7077C6.46734 12.7077 6.47623 12.7077 6.48515 12.7077C6.51684 12.7077 6.549 12.7077 6.58165 12.7077H16.0418V6.66602C16.0418 5.46984 16.0405 4.63558 15.9559 4.00612C15.8737 3.39464 15.7233 3.07083 15.4927 2.84019C15.262 2.60956 14.9382 2.45918 14.3267 2.37697C13.6973 2.29234 12.863 2.29102 11.6668 2.29102H8.3335C7.57698 2.29102 6.96523 2.29155 6.4585 2.31335ZM16.0412 13.9577H11.4585V16.2751C11.4585 16.2823 11.4585 16.2898 11.4585 16.2976C11.4587 16.3902 11.4588 16.5224 11.4411 16.6358C11.4194 16.7745 11.3481 17.0422 11.0709 17.205C10.8039 17.3617 10.5428 17.3035 10.4187 17.2649C10.3105 17.2313 10.1918 17.1748 10.1034 17.1326C10.0964 17.1293 10.0895 17.1261 10.0829 17.1229L9.16683 16.6878L8.25073 17.1229C8.24413 17.1261 8.23731 17.1293 8.23031 17.1326C8.14184 17.1748 8.02319 17.2313 7.91498 17.2649C7.79086 17.3035 7.52974 17.3617 7.26276 17.205C6.98554 17.0422 6.91422 16.7745 6.89254 16.6358C6.87481 16.5224 6.87501 16.3902 6.87514 16.2976C6.87515 16.2898 6.87516 16.2823 6.87516 16.2751V13.9577H6.58165C5.76643 13.9577 5.48143 13.9631 5.26303 14.0216C4.66359 14.1822 4.18573 14.6278 3.98079 15.2069C3.99346 15.5017 4.01332 15.761 4.04445 15.9926C4.12666 16.6041 4.27704 16.9279 4.50767 17.1585C4.73831 17.3891 5.06212 17.5395 5.6736 17.6217C6.30306 17.7064 7.13732 17.7077 8.3335 17.7077H11.6668C12.863 17.7077 13.6973 17.7064 14.3267 17.6217C14.9382 17.5395 15.262 17.3891 15.4927 17.1585C15.7233 16.9279 15.8737 16.6041 15.9559 15.9926C16.0249 15.479 16.0385 14.8292 16.0412 13.9577ZM8.12516 13.9577V15.7987L8.74959 15.5021C8.75112 15.5014 8.75359 15.5001 8.75694 15.4984C8.79778 15.4775 8.96988 15.3895 9.16683 15.3895C9.36379 15.3895 9.53588 15.4775 9.57673 15.4984C9.58007 15.5001 9.58254 15.5014 9.58407 15.5021L10.2085 15.7987V13.9577H8.12516Z" fill="#1C274D"/>
</svg>
