<svg width="20" height="20" viewBox="0 0 20 20" fill="none" xmlns="http://www.w3.org/2000/svg">
<path d="M14.1667 11.6673C14.627 11.6673 15.0001 11.2942 15.0001 10.834C15.0001 10.3737 14.627 10.0007 14.1667 10.0007C13.7065 10.0007 13.3334 10.3737 13.3334 10.834C13.3334 11.2942 13.7065 11.6673 14.1667 11.6673Z" fill="#2B2B2B"/>
<path d="M14.1667 15.0007C14.627 15.0007 15.0001 14.6276 15.0001 14.1673C15.0001 13.7071 14.627 13.334 14.1667 13.334C13.7065 13.334 13.3334 13.7071 13.3334 14.1673C13.3334 14.6276 13.7065 15.0007 14.1667 15.0007Z" fill="#2B2B2B"/>
<path d="M10.8334 10.834C10.8334 11.2942 10.4603 11.6673 10.0001 11.6673C9.53984 11.6673 9.16675 11.2942 9.16675 10.834C9.16675 10.3737 9.53984 10.0007 10.0001 10.0007C10.4603 10.0007 10.8334 10.3737 10.8334 10.834Z" fill="#2B2B2B"/>
<path d="M10.8334 14.1673C10.8334 14.6276 10.4603 15.0007 10.0001 15.0007C9.53984 15.0007 9.16675 14.6276 9.16675 14.1673C9.16675 13.7071 9.53984 13.334 10.0001 13.334C10.4603 13.334 10.8334 13.7071 10.8334 14.1673Z" fill="#2B2B2B"/>
<path d="M5.83342 11.6673C6.29365 11.6673 6.66675 11.2942 6.66675 10.834C6.66675 10.3737 6.29365 10.0007 5.83342 10.0007C5.37318 10.0007 5.00008 10.3737 5.00008 10.834C5.00008 11.2942 5.37318 11.6673 5.83342 11.6673Z" fill="#2B2B2B"/>
<path d="M5.83342 15.0007C6.29365 15.0007 6.66675 14.6276 6.66675 14.1673C6.66675 13.7071 6.29365 13.334 5.83342 13.334C5.37318 13.334 5.00008 13.7071 5.00008 14.1673C5.00008 14.6276 5.37318 15.0007 5.83342 15.0007Z" fill="#2B2B2B"/>
<path fill-rule="evenodd" clip-rule="evenodd" d="M5.83342 1.45898C6.17859 1.45898 6.45842 1.73881 6.45842 2.08398V2.71958C7.01008 2.70897 7.61785 2.70898 8.2863 2.70898H11.7138C12.3822 2.70898 12.9901 2.70897 13.5417 2.71958V2.08398C13.5417 1.73881 13.8216 1.45898 14.1667 1.45898C14.5119 1.45898 14.7917 1.73881 14.7917 2.08398V2.77322C15.0084 2.78974 15.2135 2.8105 15.4076 2.8366C16.3846 2.96795 17.1754 3.24472 17.799 3.86835C18.4227 4.49199 18.6994 5.28278 18.8308 6.2598C18.9584 7.20914 18.9584 8.42215 18.9584 9.9536V11.7143C18.9584 13.2458 18.9584 14.4588 18.8308 15.4082C18.6994 16.3852 18.4227 17.176 17.799 17.7996C17.1754 18.4233 16.3846 18.7 15.4076 18.8314C14.4583 18.959 13.2452 18.959 11.7138 18.959H8.28641C6.75496 18.959 5.5419 18.959 4.59256 18.8314C3.61554 18.7 2.82475 18.4233 2.20112 17.7996C1.57748 17.176 1.30072 16.3852 1.16936 15.4082C1.04172 14.4588 1.04174 13.2458 1.04175 11.7143V9.95364C1.04174 8.42217 1.04172 7.20914 1.16936 6.2598C1.30072 5.28278 1.57748 4.49199 2.20112 3.86835C2.82475 3.24472 3.61554 2.96795 4.59256 2.8366C4.78667 2.8105 4.9918 2.78974 5.20842 2.77322V2.08398C5.20842 1.73881 5.48824 1.45898 5.83342 1.45898ZM4.75912 4.07545C3.92071 4.18817 3.43768 4.39956 3.085 4.75224C2.73233 5.10491 2.52094 5.58795 2.40821 6.42636C2.38912 6.56835 2.37316 6.71783 2.35982 6.87565H17.6403C17.627 6.71783 17.611 6.56835 17.5919 6.42636C17.4792 5.58795 17.2678 5.10491 16.9152 4.75224C16.5625 4.39956 16.0794 4.18817 15.241 4.07545C14.3847 3.96031 13.2558 3.95898 11.6667 3.95898H8.33342C6.7444 3.95898 5.61551 3.96031 4.75912 4.07545ZM2.29175 10.0007C2.29175 9.28897 2.29201 8.66959 2.30265 8.12565H17.6975C17.7081 8.66959 17.7084 9.28897 17.7084 10.0007V11.6673C17.7084 13.2563 17.7071 14.3852 17.5919 15.2416C17.4792 16.08 17.2678 16.5631 16.9152 16.9157C16.5625 17.2684 16.0794 17.4798 15.241 17.5925C14.3847 17.7077 13.2558 17.709 11.6667 17.709H8.33342C6.7444 17.709 5.61551 17.7077 4.75912 17.5925C3.92072 17.4798 3.43768 17.2684 3.085 16.9157C2.73233 16.5631 2.52094 16.08 2.40821 15.2416C2.29308 14.3852 2.29175 13.2563 2.29175 11.6673V10.0007Z" fill="#2B2B2B"/>
</svg>
