<svg width="20" height="20" viewBox="0 0 20 20" fill="none" xmlns="http://www.w3.org/2000/svg">
<path fill-rule="evenodd" clip-rule="evenodd" d="M9.95202 1.04102H10.0477C11.9713 1.04101 13.4788 1.041 14.6551 1.19914C15.859 1.361 16.809 1.69879 17.5547 2.44446C18.3004 3.19014 18.6382 4.14016 18.8 5.3441C18.9582 6.52034 18.9582 8.02788 18.9582 9.95154V10.0518C18.9582 10.3526 18.9582 10.6433 18.9576 10.9241C18.9582 11.1502 18.9582 11.3873 18.9582 11.6361V11.666H18.9539C18.944 12.8442 18.9108 13.8307 18.8 14.6546C18.6382 15.8585 18.3004 16.8086 17.5547 17.5542C16.809 18.2999 15.859 18.6377 14.6551 18.7996C13.4788 18.9577 11.9713 18.9577 10.0476 18.9577H9.95203C8.02836 18.9577 6.52083 18.9577 5.34459 18.7996C4.14065 18.6377 3.19063 18.2999 2.44495 17.5542C1.69928 16.8086 1.36149 15.8585 1.19963 14.6546C1.08885 13.8307 1.05568 12.8442 1.04574 11.666H1.0415V11.6361C1.0415 11.3873 1.0415 11.1502 1.04211 10.924C1.0415 10.6418 1.0415 10.3496 1.0415 10.0472V9.95153C1.04149 8.02787 1.04148 6.52034 1.19963 5.3441C1.36149 4.14016 1.69928 3.19014 2.44495 2.44446C3.19063 1.69879 4.14065 1.361 5.34459 1.19914C6.52083 1.041 8.02836 1.04101 9.95202 1.04102ZM17.5612 5.51066C17.5747 5.61139 17.587 5.71505 17.5982 5.82183C17.235 5.44914 16.8113 5.13579 16.3419 4.89661C15.7934 4.61716 15.1875 4.49312 14.4541 4.43319C13.7338 4.37434 12.8376 4.37434 11.6945 4.37435H8.3052C7.1621 4.37434 6.26591 4.37434 5.54562 4.43319C4.81217 4.49312 4.20624 4.61716 3.6578 4.89661C3.18839 5.13579 2.76468 5.44913 2.40148 5.82183C2.41264 5.71505 2.42494 5.61139 2.43848 5.51066C2.58171 4.44533 2.85412 3.80306 3.32883 3.32835C3.80355 2.85363 4.44582 2.58122 5.51115 2.43799C6.59447 2.29234 8.01798 2.29102 9.99984 2.29102C11.9817 2.29102 13.4052 2.29234 14.4885 2.43799C15.5539 2.58122 16.1961 2.85363 16.6708 3.32835C17.1456 3.80306 17.418 4.44533 17.5612 5.51066ZM2.43848 14.488C2.31627 13.579 2.29567 12.4305 2.2922 10.9136C2.2945 10.1144 2.3043 9.49302 2.3462 8.98025C2.39981 8.3241 2.50283 7.90099 2.67752 7.55813C3.01707 6.89173 3.55888 6.34992 4.22529 6.01037C4.48483 5.87812 4.79037 5.78695 5.20817 5.72719V9.02518C5.20817 9.41482 5.20816 9.73444 5.22266 9.98592C5.23696 10.234 5.26771 10.4909 5.3696 10.7203C5.73745 11.5485 6.64495 11.9951 7.52556 11.7813C7.76947 11.7221 7.99183 11.5897 8.1971 11.4497C8.40519 11.3077 8.65839 11.1128 8.96707 10.8751L8.98261 10.8631C9.37372 10.5619 9.4838 10.483 9.58476 10.4391C9.84952 10.3241 10.1502 10.3241 10.4149 10.4391C10.5159 10.483 10.6259 10.5619 11.0171 10.8631L11.0325 10.875C11.3412 11.1127 11.5945 11.3077 11.8026 11.4497C12.0078 11.5897 12.2302 11.7221 12.4741 11.7813C13.3547 11.9951 14.2622 11.5485 14.6301 10.7203C14.732 10.4909 14.7627 10.234 14.777 9.98592C14.7915 9.73445 14.7915 9.41486 14.7915 9.02525V5.72719C15.2093 5.78695 15.5148 5.87812 15.7744 6.01037C16.4408 6.34992 16.9826 6.89172 17.3222 7.55813C17.4968 7.90099 17.5999 8.3241 17.6535 8.98025C17.6954 9.49302 17.7052 10.1144 17.7075 10.9136C17.704 12.4305 17.6834 13.579 17.5612 14.488C17.418 15.5534 17.1456 16.1956 16.6708 16.6704C16.1961 17.1451 15.5539 17.4175 14.4885 17.5607C13.4052 17.7064 11.9817 17.7077 9.99984 17.7077C8.01798 17.7077 6.59447 17.7064 5.51115 17.5607C4.44582 17.4175 3.80355 17.1451 3.32883 16.6704C2.85412 16.1956 2.58171 15.5534 2.43848 14.488ZM11.6665 5.62435C12.4119 5.62435 13.0242 5.62454 13.5415 5.63845V9.00568C13.5415 9.41962 13.5413 9.70288 13.5291 9.914C13.5165 10.1327 13.4934 10.2 13.4877 10.2129C13.3651 10.489 13.0626 10.6378 12.769 10.5666C12.7553 10.5632 12.6879 10.5405 12.5069 10.417C12.3322 10.2978 12.1077 10.1252 11.7797 9.87268L11.7238 9.82965C11.4154 9.59181 11.1749 9.40643 10.913 9.29265C10.3305 9.03959 9.66915 9.03959 9.08666 9.29265C8.82476 9.40644 8.58434 9.5918 8.27585 9.82964L8.22 9.87268C7.89202 10.1252 7.66744 10.2978 7.49274 10.417C7.31174 10.5405 7.24435 10.5632 7.23063 10.5666C6.9371 10.6378 6.6346 10.489 6.51198 10.2129C6.50625 10.2 6.48319 10.1327 6.47059 9.914C6.45842 9.70288 6.45817 9.41962 6.45817 9.00568V5.63845C6.97551 5.62454 7.5878 5.62435 8.33317 5.62435H11.6665Z" fill="#2B2B2B"/>
</svg>
