<svg width="20" height="20" viewBox="0 0 20 20" fill="none" xmlns="http://www.w3.org/2000/svg">
<path fill-rule="evenodd" clip-rule="evenodd" d="M10 6.87435C8.27411 6.87435 6.875 8.27346 6.875 9.99935C6.875 11.7252 8.27411 13.1243 10 13.1243C11.7259 13.1243 13.125 11.7252 13.125 9.99935C13.125 8.27346 11.7259 6.87435 10 6.87435ZM8.125 9.99935C8.125 8.96382 8.96447 8.12435 10 8.12435C11.0355 8.12435 11.875 8.96382 11.875 9.99935C11.875 11.0349 11.0355 11.8743 10 11.8743C8.96447 11.8743 8.125 11.0349 8.125 9.99935Z" fill="#2B2B2B"/>
<path fill-rule="evenodd" clip-rule="evenodd" d="M10 1.04102C9.41284 1.04102 8.87654 1.20234 8.29048 1.47465C7.7234 1.73815 7.06699 2.12688 6.24547 2.61339L5.6179 2.98504C4.79611 3.4717 4.13976 3.86038 3.63397 4.23222C3.11095 4.61671 2.70981 5.01027 2.41945 5.52612C2.12956 6.04114 1.99868 6.59181 1.93588 7.24523C1.87499 7.87884 1.87499 8.65477 1.875 9.62934V10.3694C1.87499 11.3439 1.87499 12.1199 1.93588 12.7535C1.99868 13.4069 2.12956 13.9576 2.41945 14.4726C2.70981 14.9884 3.11095 15.382 3.63397 15.7665C4.13976 16.1383 4.79611 16.527 5.6179 17.0137L6.2455 17.3853C7.06698 17.8718 7.72342 18.2606 8.29048 18.524C8.87654 18.7964 9.41284 18.9577 10 18.9577C10.5872 18.9577 11.1235 18.7964 11.7095 18.524C12.2766 18.2606 12.933 17.8718 13.7545 17.3853L14.3821 17.0137C15.2039 16.527 15.8602 16.1383 16.366 15.7665C16.889 15.382 17.2902 14.9884 17.5805 14.4726C17.8704 13.9576 18.0013 13.4069 18.0641 12.7535C18.125 12.1199 18.125 11.3439 18.125 10.3694V9.62937C18.125 8.65481 18.125 7.87884 18.0641 7.24523C18.0013 6.59181 17.8704 6.04114 17.5805 5.52612C17.2902 5.01027 16.889 4.61671 16.366 4.23222C15.8602 3.86039 15.2039 3.47171 14.3821 2.98505L13.7545 2.61339C12.933 2.12688 12.2766 1.73815 11.7095 1.47465C11.1235 1.20234 10.5872 1.04102 10 1.04102ZM6.85437 3.70555C7.71032 3.19866 8.31338 2.84236 8.81721 2.60826C9.3085 2.37998 9.65895 2.29102 10 2.29102C10.341 2.29102 10.6915 2.37998 11.1828 2.60826C11.6866 2.84236 12.2897 3.19866 13.1456 3.70555L13.7174 4.04417C14.5733 4.55099 15.1758 4.90864 15.6256 5.23935C16.0639 5.56157 16.3175 5.83057 16.4912 6.13925C16.6655 6.44875 16.7666 6.81093 16.8199 7.36481C16.8743 7.93172 16.875 8.6477 16.875 9.66073V10.338C16.875 11.351 16.8743 12.067 16.8199 12.6339C16.7666 13.1878 16.6655 13.5499 16.4912 13.8594C16.3175 14.1681 16.0639 14.4371 15.6256 14.7593C15.1758 15.0901 14.5733 15.4477 13.7174 15.9545L13.1456 16.2931C12.2897 16.8 11.6866 17.1563 11.1828 17.3904C10.6915 17.6187 10.341 17.7077 10 17.7077C9.65895 17.7077 9.3085 17.6187 8.81721 17.3904C8.31338 17.1563 7.71032 16.8 6.85437 16.2931L6.28257 15.9545C5.42675 15.4477 4.82422 15.0901 4.37436 14.7593C3.93605 14.4371 3.6825 14.1681 3.50875 13.8594C3.33454 13.5499 3.23338 13.1878 3.18015 12.6339C3.12567 12.067 3.125 11.351 3.125 10.338V9.66073C3.125 8.6477 3.12567 7.93172 3.18015 7.36481C3.23338 6.81093 3.33454 6.44875 3.50875 6.13925C3.6825 5.83057 3.93605 5.56157 4.37436 5.23935C4.82422 4.90864 5.42675 4.55099 6.28257 4.04417L6.85437 3.70555Z" fill="#2B2B2B"/>
</svg>
