<svg width="62" height="71" viewBox="0 0 62 71" fill="none" xmlns="http://www.w3.org/2000/svg">
<path d="M0 30.5059C0 21.4414 7.3418 14.0996 16.4062 14.0996H17.5C19.9199 14.0996 21.875 16.0547 21.875 18.4746C21.875 20.8945 19.9199 22.8496 17.5 22.8496H16.4062C12.1816 22.8496 8.75 26.2812 8.75 30.5059V31.5996H17.5C22.3262 31.5996 26.25 35.5234 26.25 40.3496V49.0996C26.25 53.9258 22.3262 57.8496 17.5 57.8496H8.75C3.92383 57.8496 0 53.9258 0 49.0996V44.7246V40.3496V30.5059ZM35 30.5059C35 21.4414 42.3418 14.0996 51.4062 14.0996H52.5C54.9199 14.0996 56.875 16.0547 56.875 18.4746C56.875 20.8945 54.9199 22.8496 52.5 22.8496H51.4062C47.1816 22.8496 43.75 26.2812 43.75 30.5059V31.5996H52.5C57.3262 31.5996 61.25 35.5234 61.25 40.3496V49.0996C61.25 53.9258 57.3262 57.8496 52.5 57.8496H43.75C38.9238 57.8496 35 53.9258 35 49.0996V44.7246V40.3496V30.5059Z" fill="#125875"/>
</svg>
