<svg width="69" height="69" viewBox="0 0 69 69" fill="none" xmlns="http://www.w3.org/2000/svg">
<rect x="0.367188" y="0.974609" width="68" height="68" rx="34" fill="#F7F5FF"/>
<circle cx="34.3672" cy="34.9746" r="28" fill="#36C4FF"/>
<path fill-rule="evenodd" clip-rule="evenodd" d="M31.5199 33.4302C32.1695 33.0036 33.0442 32.926 33.808 33.3995L38.5844 36.3605C39.3455 36.8323 39.6803 37.6481 39.6803 38.3887C39.6803 39.1293 39.3455 39.9451 38.5844 40.4169L33.808 43.3779C33.0442 43.8514 32.1695 43.7738 31.5199 43.3472C30.8814 42.928 30.472 42.1899 30.472 41.3497V35.4277C30.472 34.5875 30.8814 33.8494 31.5199 33.4302ZM32.6862 35.2065C32.66 35.2237 32.597 35.2864 32.597 35.4277V41.3497C32.597 41.4909 32.66 41.5537 32.6862 41.5709L32.688 41.572L37.4647 38.6108C37.4946 38.5922 37.5553 38.528 37.5553 38.3887C37.5553 38.2494 37.4946 38.1852 37.4647 38.1666L32.6883 35.2056L32.6862 35.2065Z" fill="white"/>
<path fill-rule="evenodd" clip-rule="evenodd" d="M29.6919 19.7451C29.3805 19.745 29.1417 19.745 28.9329 19.7674C27.0145 19.9733 25.5462 21.5486 25.4571 23.4569C23.77 23.9605 22.5678 25.5216 22.5461 27.312C21.695 27.5674 20.9608 27.9704 20.3598 28.6196C19.4361 29.6173 19.1499 30.8468 19.139 32.2831C19.1285 33.6638 19.3746 35.4088 19.6801 37.5757L20.302 41.9866C20.5409 43.6811 20.7349 45.0575 21.0368 46.1362C21.3527 47.2647 21.8183 48.1932 22.6804 48.907C23.5356 49.6151 24.5502 49.9204 25.7495 50.0644C26.9091 50.2035 28.3679 50.2035 30.1842 50.2035H38.5514C40.3677 50.2035 41.8266 50.2035 42.9862 50.0644C44.1854 49.9204 45.2001 49.6151 46.0553 48.907C46.9173 48.1932 47.3829 47.2647 47.6988 46.1362C48.0007 45.0575 48.1948 43.6811 48.4337 41.9866L49.0556 37.5757C49.3611 35.4088 49.6072 33.6638 49.5967 32.2831C49.5858 30.8468 49.2995 29.6173 48.3759 28.6196C47.7747 27.9702 47.0403 27.5673 46.1889 27.3118C46.1672 25.5216 44.9651 23.9607 43.2783 23.457C43.1892 21.5486 41.7208 19.9733 39.8024 19.7674C39.5937 19.745 39.3549 19.745 39.0434 19.7451H29.6919ZM44.0161 26.9387C43.8218 26.0779 43.0528 25.4118 42.1052 25.4118H26.6298C25.6822 25.4118 24.9133 26.0779 24.7189 26.9387C26.0305 26.8284 27.6383 26.8284 29.5738 26.8285H39.1619C41.0971 26.8284 42.7047 26.8284 44.0161 26.9387ZM41.122 23.2868C40.9711 22.5449 40.3551 21.9639 39.5757 21.8802C39.4959 21.8717 39.3823 21.8701 38.9844 21.8701H29.7509C29.353 21.8701 29.2394 21.8717 29.1597 21.8802C28.3802 21.9639 27.7642 22.5449 27.6133 23.2868H41.122ZM21.9191 30.0632C22.3482 29.5997 22.9935 29.2923 24.2473 29.1255C25.524 28.9557 27.2329 28.9535 29.6537 28.9535H39.0819C41.5028 28.9535 43.2117 28.9557 44.4883 29.1255C45.7422 29.2923 46.3874 29.5997 46.8165 30.0632C47.2357 30.5159 47.4629 31.132 47.4717 32.2992C47.4809 33.5035 47.2598 35.0916 46.9391 37.366L46.3399 41.616C46.0881 43.4022 45.9117 44.6374 45.6525 45.5634C45.4028 46.4553 45.1091 46.9316 44.7001 47.2702C44.2843 47.6145 43.7261 47.8353 42.733 47.9545C41.7148 48.0767 40.3837 48.0785 38.4827 48.0785H30.2529C28.3519 48.0785 27.0209 48.0767 26.0027 47.9545C25.0096 47.8353 24.4514 47.6145 24.0356 47.2702C23.6266 46.9316 23.3328 46.4553 23.0832 45.5634C22.824 44.6374 22.6476 43.4022 22.3958 41.616L21.7966 37.366C21.4759 35.0916 21.2548 33.5035 21.2639 32.2992C21.2728 31.132 21.5 30.5159 21.9191 30.0632Z" fill="white"/>
</svg>
