<svg width="16" height="18" viewBox="0 0 16 18" fill="none" xmlns="http://www.w3.org/2000/svg">
<path fill-rule="evenodd" clip-rule="evenodd" d="M7.99979 0.0410156C5.81366 0.0410156 4.04145 1.81322 4.04145 3.99935C4.04145 6.18548 5.81366 7.95768 7.99979 7.95768C10.1859 7.95768 11.9581 6.18548 11.9581 3.99935C11.9581 1.81322 10.1859 0.0410156 7.99979 0.0410156ZM5.29145 3.99935C5.29145 2.50358 6.50402 1.29102 7.99979 1.29102C9.49556 1.29102 10.7081 2.50358 10.7081 3.99935C10.7081 5.49512 9.49556 6.70768 7.99979 6.70768C6.50402 6.70768 5.29145 5.49512 5.29145 3.99935Z" fill="#1C274C"/>
<path fill-rule="evenodd" clip-rule="evenodd" d="M7.99979 9.20768C6.07183 9.20768 4.29556 9.64592 2.97933 10.3863C1.68269 11.1157 0.70812 12.2211 0.70812 13.5827L0.708064 13.6676C0.707123 14.6359 0.705941 15.851 1.7718 16.719C2.29635 17.1461 3.03018 17.4499 4.02163 17.6506C5.01584 17.8518 6.31164 17.9577 7.99979 17.9577C9.68793 17.9577 10.9837 17.8518 11.9779 17.6506C12.9694 17.4499 13.7032 17.1461 14.2278 16.719C15.2936 15.851 15.2924 14.6359 15.2915 13.6676L15.2915 13.5827C15.2915 12.2211 14.3169 11.1157 13.0202 10.3863C11.704 9.64592 9.92775 9.20768 7.99979 9.20768ZM1.95812 13.5827C1.95812 12.8732 2.47593 12.1036 3.59215 11.4758C4.68878 10.8589 6.24585 10.4577 7.99979 10.4577C9.75373 10.4577 11.3108 10.8589 12.4074 11.4758C13.5236 12.1036 14.0415 12.8732 14.0415 13.5827C14.0415 14.6725 14.0079 15.286 13.4385 15.7497C13.1297 16.0011 12.6135 16.2466 11.73 16.4254C10.8492 16.6037 9.64498 16.7077 7.99979 16.7077C6.3546 16.7077 5.1504 16.6037 4.26961 16.4254C3.38606 16.2466 2.86989 16.0011 2.56111 15.7497C1.99172 15.286 1.95812 14.6725 1.95812 13.5827Z" fill="#1C274C"/>
</svg>
