<svg width="69" height="69" viewBox="0 0 69 69" fill="none" xmlns="http://www.w3.org/2000/svg">
<rect x="0.367188" y="0.974609" width="68" height="68" rx="34" fill="#F7F5FF"/>
<circle cx="34.3672" cy="34.9746" r="28" fill="#FF9A37"/>
<path fill-rule="evenodd" clip-rule="evenodd" d="M34.368 20.6416C30.8702 20.6416 28.0347 23.4771 28.0347 26.9749C28.0347 30.4727 30.8702 33.3083 34.368 33.3083C37.8658 33.3083 40.7014 30.4727 40.7014 26.9749C40.7014 23.4771 37.8658 20.6416 34.368 20.6416ZM30.0347 26.9749C30.0347 24.5817 31.9748 22.6416 34.368 22.6416C36.7613 22.6416 38.7014 24.5817 38.7014 26.9749C38.7014 29.3682 36.7613 31.3083 34.368 31.3083C31.9748 31.3083 30.0347 29.3682 30.0347 26.9749Z" fill="white"/>
<path fill-rule="evenodd" clip-rule="evenodd" d="M34.368 35.3083C31.2833 35.3083 28.4413 36.0094 26.3353 37.1941C24.2607 38.361 22.7014 40.1297 22.7014 42.3083L22.7013 42.4442C22.6998 43.9933 22.6979 45.9376 24.4032 47.3263C25.2425 48.0098 26.4167 48.4958 28.003 48.8169C29.5937 49.1389 31.667 49.3083 34.368 49.3083C37.0691 49.3083 39.1423 49.1389 40.7331 48.8169C42.3194 48.4958 43.4935 48.0098 44.3328 47.3263C46.0382 45.9376 46.0363 43.9933 46.0348 42.4442L46.0347 42.3083C46.0347 40.1297 44.4754 38.361 42.4008 37.1941C40.2948 36.0094 37.4528 35.3083 34.368 35.3083ZM24.7014 42.3083C24.7014 41.1731 25.5299 39.9418 27.3158 38.9372C29.0704 37.9502 31.5617 37.3083 34.368 37.3083C37.1743 37.3083 39.6656 37.9502 41.4202 38.9372C43.2062 39.9418 44.0347 41.1731 44.0347 42.3083C44.0347 44.052 43.9809 45.0336 43.0699 45.7755C42.5759 46.1778 41.75 46.5705 40.3363 46.8566C38.927 47.1419 37.0003 47.3083 34.368 47.3083C31.7357 47.3083 29.809 47.1419 28.3997 46.8566C26.986 46.5705 26.1602 46.1778 25.6661 45.7755C24.7551 45.0336 24.7014 44.052 24.7014 42.3083Z" fill="white"/>
</svg>
