<svg width="60" height="60" viewBox="0 0 60 60" fill="none" xmlns="http://www.w3.org/2000/svg">
<circle cx="30" cy="30" r="29.5" stroke="#F69320"/>
<path fill-rule="evenodd" clip-rule="evenodd" d="M22.8871 13.5545C24.5977 13.4758 25.1432 13.4583 29.5007 13.4583C33.8582 13.4583 34.4036 13.4772 36.1127 13.5545C37.8219 13.6318 38.9886 13.9045 40.0094 14.2997C41.0784 14.7037 42.0481 15.3351 42.8502 16.1518C43.6669 16.9524 44.2969 17.9208 44.6994 18.9912C45.0961 20.012 45.3673 21.1787 45.4461 22.8849C45.5248 24.5985 45.5423 25.1439 45.5423 29.4999C45.5423 33.8574 45.5234 34.4028 45.4461 36.1135C45.3688 37.8197 45.0961 38.9864 44.6994 40.0072C44.2969 41.0778 43.6658 42.0477 42.8502 42.8495C42.0481 43.6662 41.0784 44.2962 40.0094 44.6987C38.9886 45.0953 37.8219 45.3666 36.1156 45.4453C34.4036 45.5241 33.8582 45.5416 29.5007 45.5416C25.1432 45.5416 24.5977 45.5226 22.8871 45.4453C21.1809 45.368 20.0142 45.0953 18.9934 44.6987C17.9228 44.2961 16.9529 43.6651 16.1511 42.8495C15.335 42.0484 14.7034 41.0789 14.3004 40.0087C13.9052 38.9878 13.634 37.8212 13.5552 36.1149C13.4765 34.4014 13.459 33.856 13.459 29.4999C13.459 25.1424 13.4779 24.597 13.5552 22.8878C13.6325 21.1787 13.9052 20.012 14.3004 18.9912C14.704 17.9209 15.336 16.9514 16.1525 16.1503C16.9532 15.3344 17.9222 14.7029 18.9919 14.2997C20.0127 13.9045 21.1794 13.6333 22.8857 13.5545H22.8871ZM35.9829 16.442C34.2913 16.3647 33.7838 16.3487 29.5007 16.3487C25.2175 16.3487 24.71 16.3647 23.0184 16.442C21.4536 16.5135 20.6048 16.7745 20.039 16.9947C19.2909 17.2864 18.7557 17.632 18.1942 18.1935C17.662 18.7112 17.2524 19.3416 16.9954 20.0383C16.7752 20.6041 16.5142 21.4528 16.4427 23.0176C16.3654 24.7093 16.3494 25.2168 16.3494 29.4999C16.3494 33.783 16.3654 34.2905 16.4427 35.9822C16.5142 37.547 16.7752 38.3958 16.9954 38.9616C17.2521 39.6572 17.6619 40.2887 18.1942 40.8064C18.7119 41.3387 19.3434 41.7485 20.039 42.0051C20.6048 42.2253 21.4536 42.4864 23.0184 42.5578C24.71 42.6351 25.2161 42.6512 29.5007 42.6512C33.7852 42.6512 34.2913 42.6351 35.9829 42.5578C37.5477 42.4864 38.3965 42.2253 38.9623 42.0051C39.7104 41.7135 40.2456 41.3678 40.8071 40.8064C41.3394 40.2887 41.7492 39.6572 42.0059 38.9616C42.2261 38.3958 42.4871 37.547 42.5586 35.9822C42.6359 34.2905 42.6519 33.783 42.6519 29.4999C42.6519 25.2168 42.6359 24.7093 42.5586 23.0176C42.4871 21.4528 42.2261 20.6041 42.0059 20.0383C41.7142 19.2901 41.3686 18.7549 40.8071 18.1935C40.2893 17.6613 39.659 17.2517 38.9623 16.9947C38.3965 16.7745 37.5477 16.5135 35.9829 16.442ZM27.4517 34.4451C28.596 34.9215 29.8702 34.9858 31.0566 34.627C32.243 34.2683 33.2681 33.5088 33.9567 32.4782C34.6454 31.4476 34.9549 30.2099 34.8324 28.9765C34.7099 27.7431 34.1629 26.5905 33.285 25.7155C32.7254 25.1562 32.0487 24.728 31.3036 24.4616C30.5586 24.1952 29.7638 24.0973 28.9764 24.175C28.189 24.2526 27.4286 24.5039 26.7499 24.9107C26.0713 25.3175 25.4913 25.8698 25.0517 26.5276C24.6121 27.1855 24.3238 27.9326 24.2077 28.7153C24.0915 29.4979 24.1502 30.2966 24.3798 31.0538C24.6093 31.811 25.0039 32.5079 25.535 33.0943C26.0662 33.6807 26.7208 34.1421 27.4517 34.4451ZM23.6702 23.6695C24.4359 22.9038 25.3449 22.2965 26.3453 21.8821C27.3456 21.4677 28.4178 21.2545 29.5007 21.2545C30.5835 21.2545 31.6557 21.4677 32.656 21.8821C33.6564 22.2965 34.5654 22.9038 35.3311 23.6695C36.0967 24.4352 36.7041 25.3441 37.1185 26.3445C37.5328 27.3449 37.7461 28.4171 37.7461 29.4999C37.7461 30.5827 37.5328 31.6549 37.1185 32.6553C36.7041 33.6557 36.0967 34.5647 35.3311 35.3303C33.7847 36.8767 31.6875 37.7454 29.5007 37.7454C27.3138 37.7454 25.2166 36.8767 23.6702 35.3303C22.1239 33.784 21.2552 31.6867 21.2552 29.4999C21.2552 27.3131 22.1239 25.2158 23.6702 23.6695ZM39.5748 22.4824C39.7646 22.3034 39.9164 22.0882 40.0215 21.8495C40.1266 21.6107 40.1827 21.3533 40.1865 21.0925C40.1903 20.8317 40.1417 20.5728 40.0436 20.3311C39.9456 20.0894 39.8 19.8698 39.6156 19.6854C39.4312 19.501 39.2116 19.3554 38.9699 19.2573C38.7282 19.1593 38.4693 19.1107 38.2085 19.1145C37.9477 19.1183 37.6903 19.1744 37.4515 19.2795C37.2128 19.3845 36.9975 19.5364 36.8186 19.7262C36.4705 20.0952 36.2799 20.5853 36.2873 21.0925C36.2947 21.5997 36.4995 22.0841 36.8582 22.4428C37.2169 22.8015 37.7012 23.0063 38.2085 23.0137C38.7157 23.0211 39.2058 22.8305 39.5748 22.4824Z" fill="#F69320"/>
</svg>
