<svg width="60" height="60" viewBox="0 0 60 60" fill="none" xmlns="http://www.w3.org/2000/svg">
<path d="M29.9992 1.19995C14.0932 1.19995 1.19922 14.094 1.19922 30C1.19922 45.906 14.0932 58.8 29.9992 58.8C45.9052 58.8 58.7992 45.906 58.7992 30C58.7992 14.094 45.9052 1.19995 29.9992 1.19995ZM41.7142 24.792C41.7262 25.038 41.7292 25.284 41.7292 25.524C41.7292 33.024 36.0262 41.667 25.5922 41.667C22.5091 41.6721 19.4901 40.7866 16.8982 39.117C17.3392 39.171 17.7922 39.192 18.2512 39.192C20.9092 39.192 23.3542 38.289 25.2952 36.765C24.1124 36.7417 22.9662 36.35 22.0166 35.6445C21.0669 34.939 20.361 33.9547 19.9972 32.829C20.8467 32.9905 21.7218 32.9566 22.5562 32.73C21.2724 32.4703 20.1178 31.7747 19.2883 30.7609C18.4589 29.7472 18.0055 28.4778 18.0052 27.168V27.099C18.7702 27.522 19.6462 27.78 20.5762 27.81C19.3726 27.0087 18.5206 25.778 18.1944 24.3693C17.8681 22.9607 18.0924 21.4807 18.8212 20.232C20.2461 21.984 22.023 23.4172 24.0369 24.4389C26.0508 25.4606 28.2569 26.0479 30.5122 26.163C30.2255 24.9459 30.3489 23.6682 30.8632 22.5285C31.3776 21.3888 32.2541 20.4509 33.3564 19.8607C34.4588 19.2706 35.7252 19.0611 36.9589 19.265C38.1926 19.4688 39.3243 20.0745 40.1782 20.9879C41.4477 20.7368 42.6652 20.2711 43.7782 19.611C43.3551 20.9254 42.4692 22.0415 41.2852 22.752C42.4098 22.6165 43.5078 22.3142 44.5432 21.8549C43.7827 22.9946 42.8246 23.9893 41.7142 24.792Z" fill="#45C1F5"/>
</svg>
