<svg width="60" height="60" viewBox="0 0 60 60" fill="none" xmlns="http://www.w3.org/2000/svg">
<circle cx="30" cy="30" r="29.5" stroke="#15CF74"/>
<g clip-path="url(#clip0_13_2855)">
<path fill-rule="evenodd" clip-rule="evenodd" d="M37.3969 32.9738C36.9623 32.7565 34.8317 31.7094 34.435 31.5636C34.0383 31.4192 33.7496 31.3478 33.4594 31.7824C33.1706 32.214 32.3408 33.1911 32.0885 33.4799C31.8348 33.7701 31.5825 33.8051 31.1494 33.5892C30.7162 33.3705 29.3192 32.914 27.664 31.4382C26.3762 30.289 25.5056 28.8701 25.2533 28.4355C25.001 28.0024 25.2256 27.7676 25.4429 27.5517C25.6383 27.3578 25.876 27.0457 26.0933 26.7934C26.3106 26.5396 26.3821 26.3588 26.5265 26.0686C26.6723 25.7799 26.5994 25.5276 26.49 25.3103C26.3821 25.093 25.5158 22.9594 25.1542 22.0917C24.8027 21.2474 24.4454 21.3626 24.18 21.348C23.9262 21.3363 23.6375 21.3334 23.3487 21.3334C23.06 21.3334 22.5904 21.4413 22.1937 21.8759C21.7956 22.309 20.6771 23.3576 20.6771 25.4911C20.6771 27.6232 22.2287 29.6838 22.446 29.974C22.6633 30.2628 25.5013 34.6407 29.8485 36.5176C30.884 36.9638 31.6904 37.2307 32.319 37.429C33.3573 37.7601 34.3023 37.7134 35.049 37.6011C35.8802 37.4771 37.6127 36.5526 37.9744 35.5405C38.3346 34.5284 38.3346 33.6607 38.2267 33.4799C38.1187 33.299 37.83 33.1911 37.3954 32.9738H37.3969ZM29.4898 43.7698H29.484C26.9019 43.7703 24.3672 43.0762 22.1456 41.7603L21.6206 41.4482L16.1635 42.8803L17.6204 37.5603L17.2777 37.0148C15.8342 34.717 15.0702 32.0577 15.0742 29.344C15.0771 21.3961 21.5433 14.9299 29.4956 14.9299C33.3456 14.9299 36.9652 16.4319 39.6865 19.1561C41.0287 20.4928 42.0925 22.0823 42.8164 23.8328C43.5404 25.5833 43.91 27.46 43.904 29.3542C43.901 37.3021 37.4348 43.7698 29.4898 43.7698ZM41.7573 17.0867C40.1505 15.4693 38.2387 14.1869 36.1326 13.3137C34.0266 12.4406 31.7682 11.9941 29.4883 12.0001C19.9304 12.0001 12.1487 19.7803 12.1458 29.3426C12.1414 32.3857 12.9397 35.3762 14.4602 38.0123L12 47.0001L21.1933 44.588C23.7365 45.9736 26.5864 46.6996 29.4825 46.6996H29.4898C39.0477 46.6996 46.8294 38.9194 46.8323 29.3557C46.8393 27.0767 46.3944 24.819 45.5233 22.713C44.6522 20.6071 43.3722 18.6948 41.7573 17.0867Z" fill="#15CF74"/>
</g>
<defs>
<clipPath id="clip0_13_2855">
<rect width="35" height="35" fill="white" transform="translate(12 12)"/>
</clipPath>
</defs>
</svg>
