<svg width="66" height="65" viewBox="0 0 66 65" fill="none" xmlns="http://www.w3.org/2000/svg">
<path fill-rule="evenodd" clip-rule="evenodd" d="M13.5309 5.41699C9.41756 5.41699 6.08301 8.75155 6.08301 12.8649V53.4899C6.08301 57.6033 9.41756 60.9378 13.5309 60.9378H54.1559C58.2693 60.9378 61.6038 57.6033 61.6038 53.4899V12.8649C61.6038 8.75155 58.2693 5.41699 54.1559 5.41699H13.5309ZM37.0425 19.4958C35.6892 16.9741 31.9955 16.974 30.6422 19.4958L27.2948 25.7332L19.9783 26.8397C17.1827 27.2624 15.7654 30.7283 18.0096 32.8649L23.1863 37.794L22.0496 44.6467C21.542 47.7071 24.7929 49.555 27.2201 48.3806L33.8423 45.1772L40.4645 48.3806C42.8917 49.555 46.1428 47.7071 45.635 44.6467L44.4983 37.794L49.675 32.8649C51.9194 30.7283 50.5018 27.2624 47.7063 26.8397L40.3897 25.7332L37.0425 19.4958Z" fill="#B38A05"/>
</svg>
