<svg width="32" height="33" viewBox="0 0 32 33" fill="none" xmlns="http://www.w3.org/2000/svg">
<path fill-rule="evenodd" clip-rule="evenodd" d="M25.9998 17.1665C25.6317 17.1665 25.3332 16.868 25.3332 16.4998C25.3332 16.1317 25.6317 15.8332 25.9998 15.8332C26.368 15.8332 26.6665 16.1317 26.6665 16.4998C26.6665 16.868 26.368 17.1665 25.9998 17.1665ZM22.6665 16.4998C22.6665 18.3408 24.1589 19.8332 25.9998 19.8332C27.8408 19.8332 29.3332 18.3408 29.3332 16.4998C29.3332 14.6589 27.8408 13.1665 25.9998 13.1665C24.1589 13.1665 22.6665 14.6589 22.6665 16.4998Z" fill="#141B34"/>
<path fill-rule="evenodd" clip-rule="evenodd" d="M15.9998 17.1665C15.6317 17.1665 15.3332 16.868 15.3332 16.4998C15.3332 16.1317 15.6317 15.8332 15.9998 15.8332C16.368 15.8332 16.6665 16.1317 16.6665 16.4998C16.6665 16.868 16.368 17.1665 15.9998 17.1665ZM12.6665 16.4998C12.6665 18.3408 14.1589 19.8332 15.9998 19.8332C17.8408 19.8332 19.3332 18.3408 19.3332 16.4998C19.3332 14.6589 17.8408 13.1665 15.9998 13.1665C14.1589 13.1665 12.6665 14.6589 12.6665 16.4998Z" fill="#141B34"/>
<path fill-rule="evenodd" clip-rule="evenodd" d="M5.99984 17.1665C5.63165 17.1665 5.33317 16.868 5.33317 16.4998C5.33317 16.1317 5.63165 15.8332 5.99984 15.8332C6.36802 15.8332 6.6665 16.1317 6.6665 16.4998C6.6665 16.868 6.36802 17.1665 5.99984 17.1665ZM2.6665 16.4998C2.6665 18.3408 4.15889 19.8332 5.99984 19.8332C7.84078 19.8332 9.33317 18.3408 9.33317 16.4998C9.33317 14.6589 7.84078 13.1665 5.99984 13.1665C4.15889 13.1665 2.6665 14.6589 2.6665 16.4998Z" fill="#141B34"/>
</svg>
