<svg width="24" height="25" viewBox="0 0 24 25" fill="none" xmlns="http://www.w3.org/2000/svg">
<path d="M14.217 3.99965C12.796 3.33345 11.2035 3.33345 9.78252 3.99965L5.48919 6.01246C6.27114 6.09683 6.98602 6.5894 7.31789 7.36377C7.80739 8.50594 7.2783 9.82867 6.13613 10.3182L5.06046 10.7792C4.52594 11.0082 4.22261 11.1406 4.01782 11.2456C4.0167 11.2619 4.01564 11.2788 4.01465 11.2962L9.78261 14.0003C11.2036 14.6665 12.7961 14.6665 14.2171 14.0003L20.9082 10.8634C22.3637 10.1811 22.3637 7.81899 20.9082 7.13664L14.217 3.99965Z" fill="url(#paint0_linear_410_3360)"/>
<path d="M5.54544 8.93955C5.92616 8.77638 6.10253 8.33547 5.93936 7.95475C5.7762 7.57403 5.33529 7.39767 4.95456 7.56083L3.84318 8.03714C3.28571 8.27603 2.81328 8.47849 2.44254 8.68705C2.04805 8.90898 1.70851 9.16944 1.45419 9.55513C1.19986 9.94083 1.09421 10.3555 1.04563 10.8055C0.999964 11.2284 0.999981 11.7424 1 12.3489V15.2502C1 15.6644 1.33579 16.0002 1.75 16.0002C2.16422 16.0002 2.5 15.6644 2.5 15.2502V12.3878C2.5 11.732 2.50101 11.2995 2.53696 10.9665C2.57095 10.6517 2.63046 10.4961 2.70645 10.3809C2.78244 10.2656 2.90202 10.1496 3.178 9.99438C3.46985 9.83019 3.867 9.65889 4.46976 9.40056L5.54544 8.93955Z" fill="url(#paint1_linear_410_3360)"/>
<path opacity="0.5" d="M5 11.758L9.78261 14.0001C11.2036 14.6663 12.7961 14.6663 14.2171 14.0001L19 11.7578V17.125C19 18.1331 18.4965 19.0768 17.6147 19.5652C16.1463 20.3784 13.796 21.4996 12 21.4996C10.204 21.4996 7.8537 20.3784 6.38533 19.5652C5.5035 19.0768 5 18.1331 5 17.125V11.758Z" fill="url(#paint2_linear_410_3360)"/>
<defs>
<linearGradient id="paint0_linear_410_3360" x1="1" y1="3.5" x2="11.9882" y2="21.9597" gradientUnits="userSpaceOnUse">
<stop stop-color="#0072BB"/>
<stop offset="1" stop-color="#8FD2FD"/>
</linearGradient>
<linearGradient id="paint1_linear_410_3360" x1="1" y1="3.5" x2="11.9882" y2="21.9597" gradientUnits="userSpaceOnUse">
<stop stop-color="#0072BB"/>
<stop offset="1" stop-color="#8FD2FD"/>
</linearGradient>
<linearGradient id="paint2_linear_410_3360" x1="5" y1="11.7578" x2="14.1346" y2="24.8852" gradientUnits="userSpaceOnUse">
<stop stop-color="#0072BB"/>
<stop offset="1" stop-color="#8FD2FD"/>
</linearGradient>
</defs>
</svg>
