<svg width="50" height="51" viewBox="0 0 50 51" fill="none" xmlns="http://www.w3.org/2000/svg">
<path opacity="0.5" d="M4.16667 17.1667V25.5001C4.16667 31.3926 4.16667 34.3389 5.99725 36.1695C6.98965 37.1619 8.30994 37.6163 10.2498 37.8244C10.404 37.6162 10.5499 37.4523 10.654 37.3378C10.896 37.0716 11.2029 36.7691 11.5004 36.4758L14.6107 33.4088L15.7593 32.2452C16.5142 27.8233 20.3638 24.4584 25.0001 24.4584C29.6365 24.4584 33.4861 27.8233 34.241 32.2452L35.3896 33.4088L38.5 36.4759C38.7975 36.7692 39.1043 37.0717 39.3463 37.3378C39.4504 37.4523 39.5963 37.6162 39.7505 37.8243C41.6902 37.6163 43.0104 37.1619 44.0028 36.1695C45.8333 34.3389 45.8333 31.3926 45.8333 25.5001V17.1667C45.8333 11.2742 45.8333 8.32791 44.0028 6.49733C42.1722 4.66675 39.2259 4.66675 33.3333 4.66675H16.6667C10.7741 4.66675 7.82784 4.66675 5.99725 6.49733C4.16667 8.32792 4.16667 11.2742 4.16667 17.1667Z" fill="url(#paint0_linear_21_124)"/>
<path d="M14.5833 18.7292C13.7204 18.7292 13.0208 19.4287 13.0208 20.2917C13.0208 21.1546 13.7204 21.8542 14.5833 21.8542H35.4167C36.2796 21.8542 36.9792 21.1546 36.9792 20.2917C36.9792 19.4287 36.2796 18.7292 35.4167 18.7292H14.5833Z" fill="url(#paint1_linear_21_124)"/>
<path d="M17.1875 13C17.1875 12.1371 17.8871 11.4375 18.75 11.4375H31.25C32.1129 11.4375 32.8125 12.1371 32.8125 13C32.8125 13.8629 32.1129 14.5625 31.25 14.5625H18.75C17.8871 14.5625 17.1875 13.8629 17.1875 13Z" fill="url(#paint2_linear_21_124)"/>
<path d="M18.7523 33.6612C18.7508 33.7184 18.75 33.7757 18.75 33.8333C18.75 37.285 21.5482 40.0833 25 40.0833C28.4518 40.0833 31.25 37.285 31.25 33.8333C31.25 33.7757 31.2492 33.7184 31.2477 33.6612C31.1565 30.289 28.3942 27.5833 25 27.5833C21.764 27.5833 19.1023 30.0426 18.7823 33.1942C18.7666 33.3483 18.7566 33.504 18.7523 33.6612Z" fill="url(#paint3_linear_21_124)"/>
<path d="M15.991 36.4361L13.7401 38.6558C13.0649 39.3215 12.7274 39.6544 12.6105 39.9363C12.3443 40.5787 12.5721 41.2913 13.1517 41.6292C13.4061 41.7775 13.8648 41.8237 14.7824 41.9161C15.3004 41.9683 15.5594 41.9944 15.7764 42.0736C16.2621 42.2509 16.6399 42.6235 16.8197 43.1024C16.9 43.3163 16.9265 43.5718 16.9794 44.0826C17.0731 44.9874 17.12 45.4398 17.2703 45.6906C17.613 46.2621 18.3356 46.4867 18.9871 46.2243C19.273 46.1091 19.6105 45.7762 20.2857 45.1104L22.5366 42.8812C19.3855 42.0254 16.8941 39.5674 15.991 36.4361Z" fill="url(#paint4_linear_21_124)"/>
<path d="M27.4634 42.8812L29.7143 45.1104C30.3895 45.7762 30.727 46.1091 31.0129 46.2243C31.6644 46.4867 32.387 46.2621 32.7297 45.6906C32.88 45.4398 32.9269 44.9874 33.0206 44.0826C33.0735 43.5718 33.1 43.3163 33.1803 43.1024C33.3601 42.6235 33.7379 42.2509 34.2236 42.0736C34.4406 41.9944 34.6996 41.9683 35.2176 41.9161C36.1352 41.8237 36.5939 41.7775 36.8483 41.6292C37.4279 41.2913 37.6557 40.5787 37.3895 39.9363C37.2726 39.6544 36.9351 39.3215 36.2599 38.6558L34.009 36.4361C33.1059 39.5674 30.6145 42.0254 27.4634 42.8812Z" fill="url(#paint5_linear_21_124)"/>
<defs>
<linearGradient id="paint0_linear_21_124" x1="4.16667" y1="4.66675" x2="36.4776" y2="45.2695" gradientUnits="userSpaceOnUse">
<stop stop-color="#0072BB"/>
<stop offset="1" stop-color="#8FD2FD"/>
</linearGradient>
<linearGradient id="paint1_linear_21_124" x1="13.0208" y1="11.4375" x2="20.6387" y2="28.9587" gradientUnits="userSpaceOnUse">
<stop stop-color="#0072BB"/>
<stop offset="1" stop-color="#8FD2FD"/>
</linearGradient>
<linearGradient id="paint2_linear_21_124" x1="13.0208" y1="11.4375" x2="20.6387" y2="28.9587" gradientUnits="userSpaceOnUse">
<stop stop-color="#0072BB"/>
<stop offset="1" stop-color="#8FD2FD"/>
</linearGradient>
<linearGradient id="paint3_linear_21_124" x1="12.5" y1="27.5833" x2="30.5" y2="51.5833" gradientUnits="userSpaceOnUse">
<stop stop-color="#0072BB"/>
<stop offset="1" stop-color="#8FD2FD"/>
</linearGradient>
<linearGradient id="paint4_linear_21_124" x1="12.5" y1="27.5833" x2="30.5" y2="51.5833" gradientUnits="userSpaceOnUse">
<stop stop-color="#0072BB"/>
<stop offset="1" stop-color="#8FD2FD"/>
</linearGradient>
<linearGradient id="paint5_linear_21_124" x1="12.5" y1="27.5833" x2="30.5" y2="51.5833" gradientUnits="userSpaceOnUse">
<stop stop-color="#0072BB"/>
<stop offset="1" stop-color="#8FD2FD"/>
</linearGradient>
</defs>
</svg>
