<svg width="50" height="51" viewBox="0 0 50 51" fill="none" xmlns="http://www.w3.org/2000/svg">
<path opacity="0.5" d="M6.60745 15.4408C8.36535 13.6829 10.8949 13.1911 15.1079 13.0535L18.2335 13.0039C19.049 13 19.9143 13 20.8333 13H29.1667C30.0857 13 30.9511 13 31.7665 13.0039L34.8921 13.0535C39.1051 13.1911 41.6347 13.6829 43.3926 15.4408C45.8333 17.8816 45.8333 21.8099 45.8333 29.6667C45.8333 37.5234 45.8333 41.4518 43.3926 43.8926C40.9518 46.3333 37.0234 46.3333 29.1667 46.3333H29.1667H20.8333H20.8333C12.9766 46.3333 9.04822 46.3333 6.60745 43.8926C4.16667 41.4518 4.16667 37.5234 4.16667 29.6667C4.16667 21.8099 4.16667 17.8816 6.60745 15.4408Z" fill="url(#paint0_linear_21_116)"/>
<path d="M26.5625 21.3333C26.5625 20.4703 25.8629 19.7708 25 19.7708C24.1371 19.7708 23.4375 20.4703 23.4375 21.3333V21.3546C21.1692 21.926 19.2708 23.7145 19.2708 26.1944C19.2708 29.2296 22.1147 31.2291 25 31.2291C26.7171 31.2291 27.6042 32.3387 27.6042 33.1388C27.6042 33.9389 26.7171 35.0485 25 35.0485C23.2829 35.0485 22.3958 33.9389 22.3958 33.1388C22.3958 32.2759 21.6963 31.5763 20.8333 31.5763C19.9704 31.5763 19.2708 32.2759 19.2708 33.1388C19.2708 35.6187 21.1692 37.4071 23.4375 37.9786V37.9999C23.4375 38.8629 24.1371 39.5624 25 39.5624C25.8629 39.5624 26.5625 38.8629 26.5625 37.9999V37.9786C28.8308 37.4071 30.7292 35.6187 30.7292 33.1388C30.7292 30.1036 27.8853 28.1041 25 28.1041C23.2829 28.1041 22.3958 26.9944 22.3958 26.1944C22.3958 25.3943 23.2829 24.2846 25 24.2846C26.7171 24.2846 27.6042 25.3943 27.6042 26.1944C27.6042 27.0573 28.3037 27.7569 29.1667 27.7569C30.0296 27.7569 30.7292 27.0573 30.7292 26.1944C30.7292 23.7145 28.8308 21.926 26.5625 21.3546V21.3333Z" fill="url(#paint1_linear_21_116)"/>
<path d="M25.1087 3.10425H24.892C23.0202 3.10419 21.4593 3.10414 20.2202 3.27074C18.9123 3.44658 17.7314 3.83339 16.7825 4.78229C15.8336 5.73119 15.4468 6.91202 15.271 8.21992C15.1516 9.10818 15.1178 11.2323 15.1082 13.0535L18.2338 13.004C18.2433 11.2402 18.2733 9.3419 18.3681 8.63632C18.4974 7.67494 18.7207 7.26349 18.9922 6.992C19.2637 6.72051 19.6752 6.49712 20.6366 6.36787C21.6429 6.23257 22.992 6.22926 25.0003 6.22926C27.0087 6.22926 28.3578 6.23257 29.3641 6.36787C30.3255 6.49712 30.7369 6.72051 31.0084 6.992C31.2799 7.26349 31.5033 7.67494 31.6325 8.63632C31.7274 9.3419 31.7574 11.2402 31.7668 13.004L34.8924 13.0535C34.8829 11.2323 34.8491 9.10818 34.7297 8.21992C34.5538 6.91202 34.167 5.73119 33.2181 4.78229C32.2692 3.83339 31.0884 3.44658 29.7805 3.27074C28.5414 3.10414 26.9805 3.10419 25.1087 3.10425Z" fill="url(#paint2_linear_21_116)"/>
<defs>
<linearGradient id="paint0_linear_21_116" x1="4.16667" y1="13" x2="36.687" y2="53.6504" gradientUnits="userSpaceOnUse">
<stop stop-color="#0072BB"/>
<stop offset="1" stop-color="#8FD2FD"/>
</linearGradient>
<linearGradient id="paint1_linear_21_116" x1="19.2708" y1="19.7708" x2="36.4346" y2="29.7076" gradientUnits="userSpaceOnUse">
<stop stop-color="#0072BB"/>
<stop offset="1" stop-color="#8FD2FD"/>
</linearGradient>
<linearGradient id="paint2_linear_21_116" x1="15.1082" y1="3.10425" x2="23.0952" y2="18.9863" gradientUnits="userSpaceOnUse">
<stop stop-color="#0072BB"/>
<stop offset="1" stop-color="#8FD2FD"/>
</linearGradient>
</defs>
</svg>
