<svg width="50" height="51" viewBox="0 0 50 51" fill="none" xmlns="http://www.w3.org/2000/svg">
<path fill-rule="evenodd" clip-rule="evenodd" d="M11.8221 16.3198C7.14938 17.9143 4.16667 20.3392 4.16667 23.0547C4.16667 27.8569 13.4941 31.7498 25 31.7498C36.5059 31.7498 45.8333 27.8569 45.8333 23.0547C45.8333 20.3392 42.8506 17.9143 38.1779 16.3198C37.9184 16.9246 37.4869 17.5365 36.785 18.0247C35.1427 19.167 31.8777 20.2918 25 20.2918C18.1223 20.2918 14.8573 19.167 13.215 18.0247C12.5131 17.5365 12.0816 16.9246 11.8221 16.3198ZM25 27.5835C26.1506 27.5835 27.0833 26.6507 27.0833 25.5001C27.0833 24.3495 26.1506 23.4168 25 23.4168C23.8494 23.4168 22.9167 24.3495 22.9167 25.5001C22.9167 26.6507 23.8494 27.5835 25 27.5835ZM16.6667 23.4168C16.6667 24.5674 15.7339 25.5001 14.5833 25.5001C13.4327 25.5001 12.5 24.5674 12.5 23.4168C12.5 22.2662 13.4327 21.3335 14.5833 21.3335C15.7339 21.3335 16.6667 22.2662 16.6667 23.4168ZM35.4167 25.5001C36.5673 25.5001 37.5 24.5674 37.5 23.4168C37.5 22.2662 36.5673 21.3335 35.4167 21.3335C34.2661 21.3335 33.3333 22.2662 33.3333 23.4168C33.3333 24.5674 34.2661 25.5001 35.4167 25.5001Z" fill="url(#paint0_linear_21_113)"/>
<path d="M25 36.4376C25.8629 36.4376 26.5625 37.1372 26.5625 38.0001V44.2501C26.5625 45.1131 25.8629 45.8126 25 45.8126C24.1371 45.8126 23.4375 45.1131 23.4375 44.2501V38.0001C23.4375 37.1372 24.1371 36.4376 25 36.4376Z" fill="url(#paint1_linear_21_113)"/>
<g opacity="0.5">
<path d="M14.6979 15.0946C15.4233 10.369 19.5064 6.75 24.4349 6.75H25.5651C30.4935 6.75 34.5767 10.369 35.3021 15.0946C35.2357 15.238 35.1376 15.3639 35.0006 15.4592C34.1379 16.0592 31.6455 17.1667 25 17.1667C18.3545 17.1667 15.8621 16.0592 14.9994 15.4592C14.8624 15.3639 14.7643 15.238 14.6979 15.0946Z" fill="url(#paint2_linear_21_113)"/>
<path d="M12.5 34.3542C13.3629 34.3542 14.0625 35.0537 14.0625 35.9167V42.1667C14.0625 43.0296 13.3629 43.7292 12.5 43.7292C11.6371 43.7292 10.9375 43.0296 10.9375 42.1667V35.9167C10.9375 35.0537 11.6371 34.3542 12.5 34.3542Z" fill="url(#paint3_linear_21_113)"/>
<path d="M39.0625 35.9167C39.0625 35.0537 38.3629 34.3542 37.5 34.3542C36.6371 34.3542 35.9375 35.0537 35.9375 35.9167V42.1667C35.9375 43.0296 36.6371 43.7292 37.5 43.7292C38.3629 43.7292 39.0625 43.0296 39.0625 42.1667V35.9167Z" fill="url(#paint4_linear_21_113)"/>
</g>
<defs>
<linearGradient id="paint0_linear_21_113" x1="4.16667" y1="16.3198" x2="31.9822" y2="55.6168" gradientUnits="userSpaceOnUse">
<stop stop-color="#0072BB"/>
<stop offset="1" stop-color="#8FD2FD"/>
</linearGradient>
<linearGradient id="paint1_linear_21_113" x1="4.16667" y1="16.3198" x2="31.9822" y2="55.6168" gradientUnits="userSpaceOnUse">
<stop stop-color="#0072BB"/>
<stop offset="1" stop-color="#8FD2FD"/>
</linearGradient>
<linearGradient id="paint2_linear_21_113" x1="10.9375" y1="6.75" x2="46.5736" y2="33.8535" gradientUnits="userSpaceOnUse">
<stop stop-color="#0072BB"/>
<stop offset="1" stop-color="#8FD2FD"/>
</linearGradient>
<linearGradient id="paint3_linear_21_113" x1="10.9375" y1="6.75" x2="46.5736" y2="33.8535" gradientUnits="userSpaceOnUse">
<stop stop-color="#0072BB"/>
<stop offset="1" stop-color="#8FD2FD"/>
</linearGradient>
<linearGradient id="paint4_linear_21_113" x1="10.9375" y1="6.75" x2="46.5736" y2="33.8535" gradientUnits="userSpaceOnUse">
<stop stop-color="#0072BB"/>
<stop offset="1" stop-color="#8FD2FD"/>
</linearGradient>
</defs>
</svg>
