<svg width="50" height="51" viewBox="0 0 50 51" fill="none" xmlns="http://www.w3.org/2000/svg">
<path d="M33.3333 13.0001C33.3333 17.6025 29.6024 21.3334 25 21.3334C20.3976 21.3334 16.6667 17.6025 16.6667 13.0001C16.6667 8.39771 20.3976 4.66675 25 4.66675C29.6024 4.66675 33.3333 8.39771 33.3333 13.0001Z" fill="url(#paint0_linear_21_120)"/>
<path fill-rule="evenodd" clip-rule="evenodd" d="M34.375 46.3333C30.9377 46.3333 29.219 46.3333 28.1512 45.2655C27.0833 44.1977 27.0833 42.479 27.0833 39.0417C27.0833 35.6043 27.0833 33.8857 28.1512 32.8178C29.219 31.75 30.9377 31.75 34.375 31.75C37.8123 31.75 39.531 31.75 40.5988 32.8178C41.6667 33.8857 41.6667 35.6043 41.6667 39.0417C41.6667 42.479 41.6667 44.1977 40.5988 45.2655C39.531 46.3333 37.8123 46.3333 34.375 46.3333ZM38.4751 37.4704C38.9497 36.9958 38.9497 36.2264 38.4751 35.7518C38.0005 35.2772 37.231 35.2772 36.7564 35.7518L32.7546 39.7536L31.9936 38.9925C31.519 38.5179 30.7495 38.5179 30.2749 38.9925C29.8003 39.4671 29.8003 40.2366 30.2749 40.7112L31.8953 42.3316C32.3699 42.8061 33.1394 42.8061 33.614 42.3316L38.4751 37.4704Z" fill="url(#paint1_linear_21_120)"/>
<path opacity="0.5" d="M30.1612 46.1683C28.6484 46.2766 26.9367 46.3333 25 46.3333C8.33333 46.3333 8.33333 42.1359 8.33333 36.9583C8.33333 31.7806 15.7952 27.5833 25 27.5833C31.0012 27.5833 36.2617 29.3674 39.1963 32.0442C38.1208 31.7499 36.6118 31.7499 34.375 31.7499C30.9377 31.7499 29.219 31.7499 28.1512 32.8178C27.0833 33.8856 27.0833 35.6043 27.0833 39.0416C27.0833 42.4789 27.0833 44.1976 28.1512 45.2654C28.646 45.7603 29.2806 46.0258 30.1612 46.1683Z" fill="url(#paint2_linear_21_120)"/>
<defs>
<linearGradient id="paint0_linear_21_120" x1="16.6667" y1="4.66675" x2="33.3333" y2="21.3334" gradientUnits="userSpaceOnUse">
<stop stop-color="#0072BB"/>
<stop offset="1" stop-color="#8FD2FD"/>
</linearGradient>
<linearGradient id="paint1_linear_21_120" x1="27.0833" y1="31.75" x2="41.6667" y2="46.3333" gradientUnits="userSpaceOnUse">
<stop stop-color="#0072BB"/>
<stop offset="1" stop-color="#8FD2FD"/>
</linearGradient>
<linearGradient id="paint2_linear_21_120" x1="8.33333" y1="27.5833" x2="24.9737" y2="54.9738" gradientUnits="userSpaceOnUse">
<stop stop-color="#0072BB"/>
<stop offset="1" stop-color="#8FD2FD"/>
</linearGradient>
</defs>
</svg>
