<svg width="32" height="33" viewBox="0 0 32 33" fill="none" xmlns="http://www.w3.org/2000/svg">
<path d="M21.9999 26.5002V23.1668H18.6666C17.9302 23.1668 17.3333 22.5698 17.3333 21.8335C17.3333 21.0971 17.9302 20.5002 18.6666 20.5002H21.9999V17.1668C21.9999 16.4304 22.5969 15.8335 23.3333 15.8335C24.0697 15.8335 24.6666 16.4304 24.6666 17.1668V20.5002H27.9999C28.7363 20.5002 29.3333 21.0971 29.3333 21.8335C29.3333 22.5698 28.7363 23.1668 27.9999 23.1668H24.6666V26.5002C24.6666 27.2364 24.0697 27.8335 23.3333 27.8335C22.5969 27.8335 21.9999 27.2364 21.9999 26.5002Z" fill="#141B34"/>
<path d="M22.6667 4.1665C27.1313 4.1665 30.3333 7.7692 30.3334 12.0923C30.3334 14.3085 29.3837 16.4578 28.0769 18.3801C27.973 18.5329 27.8629 18.6822 27.7539 18.8332H26.3334V17.1665C26.3334 15.6134 25.1531 14.336 23.6407 14.1821L23.3334 14.1665C21.6766 14.1665 20.3334 15.5097 20.3334 17.1665V18.8332H18.6667C17.0099 18.8332 15.6667 20.1764 15.6667 21.8332C15.6667 23.49 17.0099 24.8332 18.6667 24.8332H20.3334V26.0584C19.7234 26.519 19.1573 26.9324 18.655 27.2824C18.0183 27.726 16.8882 28.4514 16.5143 28.6913C16.1979 28.8809 15.8022 28.8809 15.4858 28.6913C15.1119 28.4514 13.9818 27.726 13.3451 27.2824C12.0735 26.3964 10.3727 25.1308 8.66805 23.6132C6.96764 22.0993 5.23641 20.3114 3.92325 18.3801C2.61641 16.4578 1.66675 14.3085 1.66675 12.0923C1.66681 7.7692 4.86883 4.1665 9.33341 4.1665C11.4559 4.1665 13.5118 4.85008 16.0001 7.11962C18.4883 4.85008 20.5443 4.1665 22.6667 4.1665Z" fill="#141B34"/>
</svg>
