<svg width="32" height="33" viewBox="0 0 32 33" fill="none" xmlns="http://www.w3.org/2000/svg">
<path d="M22.0002 26.5002V23.1668H18.6668C17.9304 23.1668 17.3335 22.5698 17.3335 21.8335C17.3335 21.0971 17.9304 20.5002 18.6668 20.5002H22.0002V17.1668C22.0002 16.4304 22.5971 15.8335 23.3335 15.8335C24.0699 15.8335 24.6668 16.4304 24.6668 17.1668V20.5002H28.0002C28.7366 20.5002 29.3335 21.0971 29.3335 21.8335C29.3335 22.5698 28.7366 23.1668 28.0002 23.1668H24.6668V26.5002C24.6668 27.2364 24.0699 27.8335 23.3335 27.8335C22.5971 27.8335 22.0002 27.2364 22.0002 26.5002Z" fill="#141B34"/>
<path d="M22.6665 4.1665C27.131 4.1665 30.333 7.7692 30.3332 12.0923C30.3332 14.3085 29.3834 16.4578 28.0766 18.3801C27.9728 18.5329 27.8626 18.6822 27.7537 18.8332H26.3332V17.1665C26.3332 15.6134 25.1529 14.336 23.6405 14.1821L23.3332 14.1665C21.6764 14.1665 20.3332 15.5097 20.3332 17.1665V18.8332H18.6665C17.0097 18.8332 15.6665 20.1764 15.6665 21.8332C15.6665 23.49 17.0097 24.8332 18.6665 24.8332H20.3332V26.0584C19.7232 26.519 19.157 26.9324 18.6548 27.2824C18.0181 27.726 16.888 28.4514 16.5141 28.6913C16.1977 28.8809 15.802 28.8809 15.4856 28.6913C15.1117 28.4514 13.9816 27.726 13.3449 27.2824C12.0732 26.3964 10.3725 25.1308 8.66781 23.6132C6.9674 22.0993 5.23617 20.3114 3.92301 18.3801C2.61617 16.4578 1.6665 14.3085 1.6665 12.0923C1.66657 7.7692 4.86858 4.1665 9.33317 4.1665C11.4556 4.1665 13.5116 4.85008 15.9998 7.11962C18.4881 4.85008 20.5441 4.1665 22.6665 4.1665Z" fill="#141B34"/>
</svg>
