<svg width="32" height="33" viewBox="0 0 32 33" fill="none" xmlns="http://www.w3.org/2000/svg">
<path fill-rule="evenodd" clip-rule="evenodd" d="M4.3 15.2002C5.01797 15.2002 5.6 15.7822 5.6 16.5002V21.7002H6.9C6.92679 21.7002 6.95348 21.7002 6.98009 21.7002C7.83045 21.7001 8.59448 21.7001 9.21291 21.7831C9.88807 21.8739 10.5807 22.0847 11.1481 22.6521C11.7155 23.2195 11.9262 23.9122 12.017 24.5873C12.1002 25.2057 12.1001 25.9698 12.1 26.8201C12.1 26.8467 12.1 26.8734 12.1 26.9002V28.2002C12.1 28.9182 11.518 29.5002 10.8 29.5002C10.082 29.5002 9.5 28.9182 9.5 28.2002V26.9002C9.5 25.9442 9.49724 25.3581 9.4402 24.9338C9.39007 24.5609 9.31876 24.4986 9.31031 24.4913C9.30999 24.4909 9.31044 24.4914 9.31031 24.4913C9.31016 24.4911 9.30928 24.4902 9.30901 24.4899C9.30163 24.4814 9.23936 24.4102 8.86645 24.3601C8.4422 24.303 7.85599 24.3002 6.9 24.3002H5.6V28.2002C5.6 28.9182 5.01797 29.5002 4.3 29.5002C3.58203 29.5002 3 28.9182 3 28.2002V16.5002C3 15.7822 3.58203 15.2002 4.3 15.2002Z" fill="#141B34"/>
<path d="M6.2248 11.1393L6.90088 10.7684V13.9005C6.90088 14.6185 7.4829 15.2005 8.20088 15.2005H23.8009C24.5189 15.2005 25.1009 14.6185 25.1009 13.9005V10.7699L25.7744 11.1393C26.4038 11.4846 27.194 11.2542 27.5393 10.6248C27.8846 9.99527 27.6542 9.20506 27.0248 8.85974L20.0621 5.0403C19.2497 4.59457 18.5624 4.21751 17.9629 3.95837C17.3269 3.68341 16.7002 3.49951 15.9996 3.49951C15.2989 3.49951 14.6722 3.68341 14.0362 3.95837C13.4368 4.21751 12.7495 4.59457 11.937 5.0403L4.97433 8.85974C4.34485 9.20506 4.11448 9.99527 4.45978 10.6248C4.80509 11.2542 5.59532 11.4846 6.2248 11.1393Z" fill="#141B34"/>
<path fill-rule="evenodd" clip-rule="evenodd" d="M27.6999 15.2002C28.4178 15.2002 28.9999 15.7822 28.9999 16.5002V28.2002C28.9999 28.9182 28.4178 29.5002 27.6999 29.5002C26.9819 29.5002 26.3999 28.9182 26.3999 28.2002V24.3002H25.0999C24.1439 24.3002 23.5576 24.303 23.1334 24.3601C22.7604 24.4102 22.6982 24.4814 22.6908 24.4899C22.6906 24.4902 22.691 24.4898 22.6908 24.4899C22.6907 24.4901 22.6899 24.4909 22.6895 24.4913C22.6811 24.4986 22.6098 24.5609 22.5596 24.9338C22.5026 25.3581 22.4999 25.9442 22.4999 26.9002V28.2002C22.4999 28.9182 21.9178 29.5002 21.1999 29.5002C20.4819 29.5002 19.8999 28.9182 19.8999 28.2002V26.9002C19.8999 26.8734 19.8999 26.8467 19.8999 26.8201C19.8998 25.9698 19.8996 25.2057 19.9828 24.5873C20.0736 23.9122 20.2844 23.2195 20.8518 22.6521C21.4191 22.0847 22.1118 21.8739 22.787 21.7831C23.4054 21.7001 24.1694 21.7001 25.0198 21.7002C25.0463 21.7002 25.0731 21.7002 25.0999 21.7002H26.3999V16.5002C26.3999 15.7822 26.9819 15.2002 27.6999 15.2002Z" fill="#141B34"/>
<path fill-rule="evenodd" clip-rule="evenodd" d="M8.2002 19.0993C8.2002 18.3813 8.78224 17.7993 9.5002 17.7993H22.5002C23.2182 17.7993 23.8002 18.3813 23.8002 19.0993C23.8002 19.8173 23.2182 20.3993 22.5002 20.3993H17.3002V26.8993C18.0182 26.8993 18.6002 27.4813 18.6002 28.1993C18.6002 28.9173 18.0182 29.4993 17.3002 29.4993H14.7002C13.9822 29.4993 13.4002 28.9173 13.4002 28.1993C13.4002 27.4813 13.9822 26.8993 14.7002 26.8993V20.3993H9.5002C8.78224 20.3993 8.2002 19.8173 8.2002 19.0993Z" fill="#141B34"/>
</svg>
