<svg width="32" height="33" viewBox="0 0 32 33" fill="none" xmlns="http://www.w3.org/2000/svg">
<path fill-rule="evenodd" clip-rule="evenodd" d="M20.3348 17.8332C20.3348 14.9272 18.718 12.3988 16.3348 11.0985V6.1665H9.00146V11.0985C6.61829 12.3988 5.00146 14.9272 5.00146 17.8332V29.8332C5.00146 30.3854 5.44917 30.8332 6.00146 30.8332H19.3348C19.8871 30.8332 20.3348 30.3854 20.3348 29.8332V17.8332ZM7.00146 17.8332C7.00146 14.7036 9.53852 12.1665 12.6681 12.1665C15.7978 12.1665 18.3348 14.7036 18.3348 17.8332V19.4998H7.00146V17.8332Z" fill="#141B34"/>
<path fill-rule="evenodd" clip-rule="evenodd" d="M11.668 4.1665H8.66797V2.1665H18.668C18.9332 2.1665 19.1876 2.27186 19.3751 2.4594L21.3751 4.4594L19.9608 5.87361L18.2537 4.1665H13.668V7.1665H11.668V4.1665Z" fill="#141B34"/>
<path d="M26.1008 10.89C26.4091 11.2289 26.7518 11.6841 26.8903 12.2107C27.3166 13.8312 26.4726 15.61 24.8015 16.066C23.1216 16.5245 21.5052 15.4035 21.0776 13.778C20.9395 13.2526 21.0126 12.6864 21.1128 12.2381C21.219 11.7634 21.3886 11.2822 21.5572 10.8665C21.7276 10.4467 21.9067 10.0696 22.0424 9.79885C22.1106 9.66278 22.7818 8.44922 22.7818 8.44922C22.7818 8.44922 23.9675 9.16375 24.0936 9.24701C24.3444 9.4127 24.6852 9.64838 25.0396 9.92577C25.3904 10.2004 25.7747 10.5317 26.1008 10.89Z" fill="#141B34"/>
</svg>
