<svg width="65" height="65" viewBox="0 0 65 65" fill="none" xmlns="http://www.w3.org/2000/svg">
<path fill-rule="evenodd" clip-rule="evenodd" d="M13.5417 18.9583C13.5417 17.4626 14.7543 16.25 16.2501 16.25H18.9584C20.4542 16.25 21.6667 17.4626 21.6667 18.9583C21.6667 20.4541 20.4542 21.6667 18.9584 21.6667H16.2501C14.7543 21.6667 13.5417 20.4541 13.5417 18.9583ZM24.3751 18.9583C24.3751 17.4626 25.5877 16.25 27.0834 16.25H29.7917C31.2876 16.25 32.5001 17.4626 32.5001 18.9583C32.5001 20.4541 31.2876 21.6667 29.7917 21.6667H27.0834C25.5877 21.6667 24.3751 20.4541 24.3751 18.9583ZM13.5417 29.7917C13.5417 28.2959 14.7543 27.0833 16.2501 27.0833H18.9584C20.4542 27.0833 21.6667 28.2959 21.6667 29.7917C21.6667 31.2875 20.4542 32.5 18.9584 32.5H16.2501C14.7543 32.5 13.5417 31.2875 13.5417 29.7917ZM24.3751 29.7917C24.3751 28.2959 25.5877 27.0833 27.0834 27.0833H29.7917C31.2876 27.0833 32.5001 28.2959 32.5001 29.7917C32.5001 31.2875 31.2876 32.5 29.7917 32.5H27.0834C25.5877 32.5 24.3751 31.2875 24.3751 29.7917ZM13.5417 40.625C13.5417 39.1292 14.7543 37.9167 16.2501 37.9167H18.9584C20.4542 37.9167 21.6667 39.1292 21.6667 40.625C21.6667 42.1208 20.4542 43.3333 18.9584 43.3333H16.2501C14.7543 43.3333 13.5417 42.1208 13.5417 40.625ZM24.3751 40.625C24.3751 39.1292 25.5877 37.9167 27.0834 37.9167H29.7917C31.2876 37.9167 32.5001 39.1292 32.5001 40.625C32.5001 42.1208 31.2876 43.3333 29.7917 43.3333H27.0834C25.5877 43.3333 24.3751 42.1208 24.3751 40.625Z" fill="#B38A05"/>
<path fill-rule="evenodd" clip-rule="evenodd" d="M10.8334 10.833C10.8334 9.33725 12.046 8.12467 13.5417 8.12467H32.5001C33.9959 8.12467 35.2084 9.33725 35.2084 10.833V54.1663H10.8334V10.833ZM40.6251 10.833V18.9579H54.1667C58.6542 18.9579 62.2917 22.5956 62.2917 27.0829V56.8747C62.2917 57.5929 62.0063 58.2819 61.4985 58.7897C60.9907 59.2975 60.3017 59.583 59.5834 59.583H8.12508C7.4068 59.583 6.71791 59.2975 6.20999 58.7897C5.7021 58.2819 5.41675 57.5929 5.41675 56.8747V10.833C5.41675 6.34571 9.05445 2.70801 13.5417 2.70801H32.5001C36.9875 2.70801 40.6251 6.34571 40.6251 10.833ZM47.3959 27.7601C46.2741 27.7601 45.3647 28.6695 45.3647 29.7913C45.3647 30.9131 46.2741 31.8226 47.3959 31.8226H50.1042C51.226 31.8226 52.1355 30.9131 52.1355 29.7913C52.1355 28.6695 51.226 27.7601 50.1042 27.7601H47.3959ZM47.3959 38.5934C46.2741 38.5934 45.3647 39.5029 45.3647 40.6247C45.3647 41.7465 46.2741 42.6559 47.3959 42.6559H50.1042C51.226 42.6559 52.1355 41.7465 52.1355 40.6247C52.1355 39.5029 51.226 38.5934 50.1042 38.5934H47.3959Z" fill="#B38A05"/>
</svg>
