<svg width="24" height="24" viewBox="0 0 24 24" fill="none" xmlns="http://www.w3.org/2000/svg">
<path d="M9.05167 13.1925C9.23123 12.8334 9.33256 12.4281 9.33256 11.9997C9.33256 11.5713 9.23123 11.166 9.05167 10.8069M9.05167 13.1925C8.78296 13.7297 8.34074 14.1605 7.79664 14.415C7.25254 14.6695 6.63844 14.7329 6.05383 14.5949C5.46922 14.4568 4.94834 14.1254 4.57557 13.6544C4.20281 13.1834 4 12.6004 4 11.9997C4 11.399 4.20281 10.816 4.57557 10.345C4.94834 9.87395 5.46922 9.54258 6.05383 9.40454C6.63844 9.2665 7.25254 9.32987 7.79664 9.58439C8.34074 9.83891 8.78296 10.2697 9.05167 10.8069M9.05167 13.1925L14.9468 16.1399M9.05167 10.8069L14.9468 7.85947M14.9468 16.1399C14.6304 16.7726 14.5784 17.5051 14.8021 18.1762C15.0258 18.8473 15.507 19.4021 16.1397 19.7184C16.7725 20.0348 17.505 20.0868 18.1761 19.8631C18.8472 19.6394 19.402 19.1583 19.7184 18.5256C20.0348 17.8929 20.0868 17.1604 19.8631 16.4893C19.6394 15.8182 19.1582 15.2635 18.5255 14.9471C18.2122 14.7905 17.8711 14.6971 17.5217 14.6722C17.1723 14.6474 16.8214 14.6916 16.4891 14.8024C15.818 15.0261 15.2632 15.5072 14.9468 16.1399ZM14.9468 7.85947C15.2637 8.49142 15.8184 8.97184 16.4892 9.1953C17.16 9.41876 17.892 9.36701 18.5246 9.0514C18.9963 8.81549 19.3875 8.445 19.6486 7.98678C19.9098 7.52857 20.0292 7.00321 19.9917 6.47715C19.9542 5.95108 19.7616 5.44794 19.4382 5.03134C19.1147 4.61475 18.675 4.30341 18.1747 4.13671C17.6743 3.97001 17.1357 3.95543 16.627 4.0948C16.1183 4.23418 15.6624 4.52127 15.3169 4.91975C14.9714 5.31823 14.7518 5.81021 14.686 6.33347C14.6201 6.85674 14.7109 7.38779 14.9468 7.85947Z" stroke="#424242" stroke-width="2" stroke-linecap="round" stroke-linejoin="round"/>
</svg>
