<svg width="65" height="65" viewBox="0 0 65 65" fill="none" xmlns="http://www.w3.org/2000/svg">
<path d="M47.3959 10.1562C51.5093 10.1562 54.8438 13.4908 54.8438 17.6042C54.8438 21.7175 51.5093 25.0521 47.3959 25.0521C43.2825 25.0521 39.948 21.7175 39.948 17.6042C39.948 13.4908 43.2825 10.1562 47.3959 10.1562Z" fill="#B38A05"/>
<path d="M47.3958 27.7607C51.6102 27.7607 55.4303 29.496 58.3217 32.2967C59.7295 33.6606 60.2603 35.5765 60.2603 37.2881V39.2712C60.2603 40.393 59.3509 41.3024 58.2291 41.3024H44.1869C42.9202 40.4991 41.5644 39.822 40.1377 39.2898C42.9121 37.056 44.6874 33.6313 44.6874 29.792C44.6874 29.1926 44.6441 28.6036 44.5607 28.0272C45.4804 27.8523 46.4278 27.7607 47.3958 27.7607Z" fill="#B38A05"/>
<path d="M20.4729 45.7572C23.6966 42.9817 27.9042 41.3018 32.5 41.3018C37.0958 41.3018 41.3034 42.9817 44.5272 45.7572C46.0896 47.1027 46.7188 49.0452 46.7188 50.8291V52.8122C46.7188 53.934 45.8093 54.8434 44.6875 54.8434H20.3125C19.1907 54.8434 18.2812 53.934 18.2812 52.8122V50.8291C18.2812 49.0452 18.9104 47.1027 20.4729 45.7572Z" fill="#B38A05"/>
<path d="M23.698 29.7913C23.698 24.9301 27.6389 20.9893 32.5001 20.9893C37.3613 20.9893 41.3022 24.9301 41.3022 29.7913C41.3022 34.6525 37.3613 38.5934 32.5001 38.5934C27.6389 38.5934 23.698 34.6525 23.698 29.7913Z" fill="#B38A05"/>
<path d="M17.6042 10.1562C13.4908 10.1562 10.1562 13.4908 10.1562 17.6042C10.1562 21.7175 13.4908 25.0521 17.6042 25.0521C21.7175 25.0521 25.0521 21.7175 25.0521 17.6042C25.0521 13.4908 21.7175 10.1562 17.6042 10.1562Z" fill="#B38A05"/>
<path d="M17.6041 27.7607C13.3895 27.7607 9.56946 29.496 6.67821 32.2967C5.27023 33.6606 4.7395 35.5765 4.7395 37.2881V39.2712C4.7395 40.393 5.64893 41.3024 6.77075 41.3024H20.8129C22.0796 40.4991 23.4355 39.822 24.8621 39.2898C22.0877 37.056 20.3124 33.6313 20.3124 29.792C20.3124 29.1926 20.3557 28.6036 20.4393 28.0272C19.5193 27.8523 18.5721 27.7607 17.6041 27.7607Z" fill="#B38A05"/>
</svg>
