<svg width="66" height="65" viewBox="0 0 66 65" fill="none" xmlns="http://www.w3.org/2000/svg">
<path d="M19.515 6.09385C22.303 6.09263 24.2304 6.09177 25.9607 6.7406C29.7402 8.15785 31.3985 11.5139 32.6771 14.1008C33.0598 14.8665 33.7561 16.2575 33.9508 16.5634C34.0104 16.6634 34.1989 16.8682 34.4752 16.8875C34.8359 16.9248 35.3245 16.9273 36.1806 16.9273H45.8071C48.5669 16.9273 50.7923 16.9272 52.5779 17.1089C54.4212 17.2964 56.0197 17.6941 57.4337 18.6389C58.5428 19.3799 59.4948 20.3321 60.2358 21.441C61.1807 22.8551 61.5783 24.4536 61.766 26.2967C61.9474 28.0824 61.9474 30.5321 61.9474 33.2919C61.9474 37.9494 61.9474 41.6007 61.6517 44.5079C61.3502 47.4727 60.7241 49.8883 59.3231 51.9853C58.1866 53.6859 56.7268 55.1457 55.0263 56.2821C52.9292 57.6831 50.5137 58.3093 47.5488 58.6107C44.6417 58.9065 40.9903 58.9065 36.3328 58.9065H32.6774C26.4256 58.9065 21.5261 58.9065 17.7033 58.3927C13.7905 57.8665 10.7029 56.7688 8.27947 54.3454C5.85603 51.9219 4.75824 48.8342 4.23217 44.9214C3.71821 41.0986 3.71824 36.1993 3.71826 29.9473V21.4218C3.71824 19.0419 3.71821 17.1224 3.85487 15.5723C3.99565 13.9751 4.29346 12.5774 5.0058 11.3009C5.9236 9.65634 7.28061 8.2993 8.92525 7.3815C10.2017 6.66916 11.5994 6.37138 13.1966 6.23057C14.7467 6.09394 17.1351 6.09383 19.515 6.09385Z" fill="#B38A05"/>
</svg>
