<svg width="20" height="20" viewBox="0 0 20 20" fill="none" xmlns="http://www.w3.org/2000/svg">
<path d="M16.2502 5L15.0279 5.91667C14.7394 6.13304 14.3886 6.25 14.0279 6.25H11.2293C10.7314 6.25 10.2762 6.53134 10.0535 6.97672C9.77866 7.52634 9.92125 8.19301 10.3968 8.58213L12.0635 9.94575C13.3751 11.0189 14.0539 12.6834 13.8667 14.3677L13.8282 14.7147C13.7763 15.1814 13.6753 15.6413 13.5268 16.0867L13.3335 16.6667" stroke="#28AED8" stroke-width="1.5"/>
<path d="M2.0835 8.74984L4.78191 8.3001C5.90995 8.1121 6.8879 9.09005 6.6999 10.2181L6.5878 10.8907C6.38711 12.0948 6.99525 13.289 8.08713 13.835C8.96144 14.2721 9.41482 15.2579 9.17774 16.2062L8.75016 17.9165" stroke="#28AED8" stroke-width="1.5"/>
<circle cx="9.99984" cy="9.99984" r="7.58333" stroke="#28AED8" stroke-width="1.5"/>
</svg>
