<svg width="96" height="28" viewBox="0 0 96 28" fill="none" xmlns="http://www.w3.org/2000/svg">
<g clip-path="url(#clip0_410_1972)">
<path fill-rule="evenodd" clip-rule="evenodd" d="M91.9802 28H4.01981C2.0799 28 0.5 26.4219 0.5 24.5V3.5C0.5 1.57107 2.0799 0 4.01981 0H91.9802C93.9184 0 95.5 1.57107 95.5 3.5V24.5C95.5 26.4219 93.9184 28 91.9802 28Z" fill="#2B2B2B"/>
<path fill-rule="evenodd" clip-rule="evenodd" d="M91.9802 0.560349C93.6073 0.560349 94.939 1.8818 94.939 3.5V24.5C94.939 26.1182 93.616 27.4396 91.9802 27.4396H4.01981C2.39273 27.4396 1.061 26.1182 1.061 24.5V3.5C1.061 1.8818 2.38399 0.560349 4.01981 0.560349H91.9802ZM91.9802 0H4.01981C2.0799 0 0.5 1.57805 0.5 3.5V24.5C0.5 26.4289 2.0799 28 4.01981 28H91.9802C93.9184 28 95.5 26.4289 95.5 24.5V3.5C95.5 1.57805 93.9184 0 91.9802 0Z" fill="#A6A6A6"/>
<path d="M50.5464 9.2624C49.9119 9.2624 49.3772 9.0407 48.9542 8.60429C48.5348 8.1801 48.3006 7.59531 48.3111 6.99831C48.3111 6.36115 48.5278 5.82175 48.9542 5.39407C49.3754 4.95766 49.9102 4.73596 50.5446 4.73596C51.172 4.73596 51.7068 4.95766 52.1367 5.39407C52.5632 5.83571 52.7799 6.37511 52.7799 6.99831C52.7729 7.63721 52.5562 8.17661 52.1367 8.60255C51.7155 9.04245 51.1808 9.2624 50.5464 9.2624ZM31.6697 9.2624C31.0493 9.2624 30.511 9.04419 30.0706 8.61302C29.6337 8.18359 29.4117 7.6407 29.4117 7.00005C29.4117 6.3594 29.6337 5.81651 30.0706 5.38708C30.5023 4.95591 31.0406 4.73771 31.6697 4.73771C31.9773 4.73771 32.2762 4.79881 32.5628 4.92275C32.8442 5.04319 33.0731 5.20728 33.2426 5.40803L33.2846 5.45866L32.811 5.92299L32.762 5.86539C32.4946 5.54768 32.1364 5.39232 31.6627 5.39232C31.2398 5.39232 30.871 5.54245 30.567 5.8392C30.2611 6.13771 30.1056 6.52873 30.1056 7.0018C30.1056 7.47486 30.2611 7.86589 30.567 8.16439C30.871 8.46115 31.2398 8.61127 31.6627 8.61127C32.1136 8.61127 32.4929 8.46115 32.7882 8.16439C32.963 7.98983 33.0714 7.74544 33.1098 7.43646H31.5911V6.78359H33.7617L33.7704 6.84294C33.7862 6.95292 33.8019 7.06639 33.8019 7.17112C33.8019 7.77337 33.6201 8.2604 33.2601 8.62C32.8512 9.04594 32.3164 9.2624 31.6697 9.2624ZM56.7681 9.16988H56.0987L54.0487 5.89332L54.0662 6.48334V9.16813H53.3968V4.83023H54.1605L54.1815 4.86339L56.1092 7.94968L56.0917 7.3614V4.83023H56.7681V9.16988ZM45.5166 9.16988H44.8385V5.48309H43.6623V4.83023H46.691V5.48309H45.5148V9.16988H45.5166ZM43.11 9.16988H42.4337V4.83023H43.11V9.16988ZM39.3088 9.16988H38.6325V5.48309H37.4563V4.83023H40.485V5.48309H39.3088V9.16988ZM37.0281 9.1629H34.4346V4.83023H37.0281V5.48309H35.1127V6.67362H36.8411V7.3195H35.1127V8.51003H37.0281V9.1629ZM49.4506 8.15566C49.7529 8.45766 50.1199 8.60953 50.5464 8.60953C50.985 8.60953 51.3433 8.46115 51.6421 8.15566C51.9392 7.8589 52.0895 7.46963 52.0895 7.00005C52.0895 6.53048 51.9392 6.13945 51.6439 5.84444C51.3415 5.54245 50.9728 5.39058 50.5481 5.39058C50.1094 5.39058 49.7512 5.53895 49.4541 5.84444C49.157 6.1412 49.0067 6.53048 49.0067 7.00005C49.0067 7.46963 49.1552 7.86065 49.4506 8.15566Z" fill="white"/>
<path fill-rule="evenodd" clip-rule="evenodd" d="M48.2482 15.229C46.5966 15.229 45.2579 16.4806 45.2579 18.207C45.2579 19.9177 46.6054 21.1851 48.2482 21.1851C49.8997 21.1851 51.2384 19.9247 51.2384 18.207C51.2384 16.4806 49.8997 15.229 48.2482 15.229ZM48.2482 20.005C47.3446 20.005 46.5669 19.2579 46.5669 18.2C46.5669 17.1265 47.3464 16.395 48.2482 16.395C49.1517 16.395 49.9294 17.1265 49.9294 18.2C49.9312 19.2649 49.1517 20.005 48.2482 20.005ZM41.7241 15.229C40.0726 15.229 38.7338 16.4806 38.7338 18.207C38.7338 19.9177 40.0813 21.1851 41.7241 21.1851C43.3757 21.1851 44.7144 19.9247 44.7144 18.207C44.7144 16.4806 43.3739 15.229 41.7241 15.229ZM41.7241 20.005C40.8206 20.005 40.0429 19.2579 40.0429 18.2C40.0429 17.1265 40.8223 16.395 41.7241 16.395C42.6277 16.395 43.4054 17.1265 43.4054 18.2C43.4054 19.2649 42.6277 20.005 41.7241 20.005ZM33.9609 16.1384V17.3988H36.9897C36.897 18.1058 36.6628 18.6277 36.3046 18.9856C35.8607 19.429 35.1756 19.9108 33.9679 19.9108C32.1067 19.9108 30.6509 18.4095 30.6509 16.5504C30.6509 14.6913 32.1067 13.1901 33.9679 13.1901C34.9729 13.1901 35.7051 13.5863 36.2487 14.0926L37.1435 13.1988C36.3885 12.4761 35.3836 11.9227 33.9749 11.9227C31.4216 11.9227 29.2789 14 29.2789 16.5434C29.2789 19.0938 31.4198 21.1641 33.9749 21.1641C35.3538 21.1641 36.3885 20.7138 37.2064 19.8654C38.04 19.0327 38.3039 17.8579 38.3039 16.91C38.3039 16.615 38.2812 16.3497 38.234 16.1245H33.9592C33.9609 16.1227 33.9609 16.1384 33.9609 16.1384ZM65.7144 17.1195C65.4645 16.4509 64.7095 15.222 63.1611 15.222C61.6266 15.222 60.3508 16.4282 60.3508 18.2C60.3508 19.8724 61.6126 21.1781 63.3096 21.1781C64.6728 21.1781 65.4662 20.3454 65.7931 19.8566L64.7812 19.1793C64.4456 19.6768 63.979 20.0033 63.3166 20.0033C62.6473 20.0033 62.1789 19.6995 61.8678 19.1008L65.8542 17.4512C65.8542 17.4529 65.7144 17.1195 65.7144 17.1195ZM61.6493 18.1145C61.6179 16.9641 62.5441 16.3793 63.2065 16.3793C63.7291 16.3793 64.1642 16.6359 64.3128 17.0095L61.6493 18.1145ZM58.4109 21H59.7199V12.2509H58.4109V21ZM56.2613 15.8906H56.2141C55.9187 15.5397 55.3577 15.222 54.6412 15.222C53.1539 15.222 51.7837 16.5295 51.7837 18.2088C51.7837 19.8811 53.1469 21.1729 54.6412 21.1729C55.349 21.1729 55.9187 20.8534 56.2141 20.4955H56.2613V20.9232C56.2613 22.0596 55.6531 22.6724 54.6726 22.6724C53.8704 22.6724 53.3724 22.0963 53.1696 21.6145L52.0319 22.0893C52.3587 22.8748 53.2308 23.8472 54.6709 23.8472C56.2053 23.8472 57.5056 22.9447 57.5056 20.7434V15.4H56.2682V15.8906C56.27 15.8906 56.2613 15.8906 56.2613 15.8906ZM54.7583 20.005C53.8547 20.005 53.0997 19.2509 53.0997 18.2088C53.0997 17.1579 53.8547 16.3968 54.7583 16.3968C55.6531 16.3968 56.3469 17.1666 56.3469 18.2088C56.3556 19.2509 55.6548 20.005 54.7583 20.005ZM71.8435 12.2509H68.7134V21H70.0224V17.6868H71.8453C73.2941 17.6868 74.7184 16.6377 74.7184 14.9724C74.7184 13.307 73.2993 12.2509 71.8435 12.2509ZM71.882 16.4649H70.0207V13.4624H71.882C72.8624 13.4624 73.4164 14.2706 73.4164 14.9636C73.4164 15.6497 72.8554 16.4649 71.882 16.4649ZM79.9649 15.2133C79.0142 15.2133 78.0338 15.634 77.6283 16.5504L78.7888 17.0322C79.0387 16.5504 79.4966 16.3863 79.9807 16.3863C80.6588 16.3863 81.3439 16.7913 81.3596 17.514V17.6065C81.1254 17.4739 80.6116 17.2714 79.9964 17.2714C78.7433 17.2714 77.4728 17.9556 77.4728 19.2387C77.4728 20.4135 78.5004 21.1676 79.6451 21.1676C80.5242 21.1676 81.0083 20.7714 81.3106 20.3123H81.3578V20.9896H82.6197V17.6379C82.6197 16.0773 81.4592 15.2133 79.9649 15.2133ZM79.8007 20.005C79.3725 20.005 78.773 19.7955 78.773 19.2579C78.773 18.5806 79.521 18.324 80.1589 18.324C80.7357 18.324 81.0083 18.4479 81.3509 18.619C81.2565 19.4045 80.5924 19.998 79.8007 20.005ZM87.223 15.4L85.72 19.195H85.6728L84.1157 15.4H82.707L85.0437 20.705L83.712 23.6534H85.0751L88.6701 15.4H87.223ZM75.4402 21H76.7492V12.2509H75.4402V21Z" fill="white"/>
<path fill-rule="evenodd" clip-rule="evenodd" d="M7.81226 5.27357C7.60953 5.49178 7.49243 5.82519 7.49243 6.2616V21.7402C7.49243 22.1766 7.60953 22.51 7.81925 22.7195L7.87342 22.7666L16.5559 14.0943V13.9005L7.86643 5.22644L7.81226 5.27357Z" fill="#0C8CE9"/>
<path fill-rule="evenodd" clip-rule="evenodd" d="M19.4448 16.9938L16.5489 14.1012V13.8987L19.4448 11.0062L19.5077 11.0446L22.9331 12.9893C23.9136 13.5409 23.9136 14.4521 22.9331 15.0107L19.5077 16.9554L19.4448 16.9938Z" fill="url(#paint0_linear_410_1972)"/>
<path fill-rule="evenodd" clip-rule="evenodd" d="M19.5077 16.9554L16.5489 14L7.81226 22.7264C8.13208 23.0686 8.66862 23.107 9.26807 22.7736L19.5077 16.9554Z" fill="url(#paint1_linear_410_1972)"/>
<path fill-rule="evenodd" clip-rule="evenodd" d="M19.5077 11.0446L9.26807 5.23511C8.66862 4.89297 8.13033 4.9401 7.81226 5.28224L16.5489 13.9999L19.5077 11.0446Z" fill="url(#paint2_linear_410_1972)"/>
<path opacity="0.2" fill-rule="evenodd" clip-rule="evenodd" d="M19.4448 16.8926L9.27506 22.6637C8.70706 22.9901 8.20024 22.9674 7.87342 22.6706L7.81924 22.7247L7.87342 22.7719C8.20024 23.0669 8.70706 23.0913 9.27506 22.7649L19.5147 16.9554L19.4448 16.8926Z" fill="black"/>
<path opacity="0.12" fill-rule="evenodd" clip-rule="evenodd" d="M22.9331 14.9095L19.436 16.8925L19.499 16.9554L22.9244 15.0107C23.4155 14.7314 23.6567 14.3648 23.6567 14C23.627 14.3352 23.377 14.6529 22.9331 14.9095Z" fill="black"/>
<path opacity="0.25" fill-rule="evenodd" clip-rule="evenodd" d="M9.26807 5.33635L22.9331 13.0905C23.377 13.3401 23.6269 13.6665 23.6654 13.9999C23.6654 13.6351 23.4242 13.2685 22.9331 12.9892L9.26807 5.23511C8.28762 4.67476 7.49243 5.14259 7.49243 6.26154V6.36279C7.49243 5.24209 8.28762 4.78299 9.26807 5.33635Z" fill="white"/>
</g>
<defs>
<linearGradient id="paint0_linear_410_1972" x1="24.2117" y1="14" x2="7.25415" y2="14" gradientUnits="userSpaceOnUse">
<stop stop-color="#FFE000"/>
<stop offset="0.4087" stop-color="#FFBD00"/>
<stop offset="0.7754" stop-color="#FFA500"/>
<stop offset="1" stop-color="#FF9C00"/>
</linearGradient>
<linearGradient id="paint1_linear_410_1972" x1="17.8988" y1="15.6081" x2="6.75295" y2="34.3894" gradientUnits="userSpaceOnUse">
<stop stop-color="#FF3A44"/>
<stop offset="1" stop-color="#C31162"/>
</linearGradient>
<linearGradient id="paint2_linear_410_1972" x1="5.61228" y1="0.125102" x2="10.5849" y2="8.5131" gradientUnits="userSpaceOnUse">
<stop stop-color="#32A071"/>
<stop offset="0.0685" stop-color="#2DA771"/>
<stop offset="0.4762" stop-color="#15CF74"/>
<stop offset="0.8009" stop-color="#06E775"/>
<stop offset="1" stop-color="#00F076"/>
</linearGradient>
<clipPath id="clip0_410_1972">
<rect x="0.5" width="95" height="28" rx="5" fill="white"/>
</clipPath>
</defs>
</svg>
